<svg width="20" height="20" viewBox="0 0 20 20" fill="none" xmlns="http://www.w3.org/2000/svg">
<path d="M16.1542 -0.00012207C17.4915 -0.00012207 17.9764 0.139116 18.4653 0.400577C18.9542 0.662037 19.3378 1.04572 19.5993 1.53461C19.8608 2.0235 20 2.50843 20 3.84571V8.99988H18V7.99988H2V12.7181C2 13.1081 2.03553 13.2807 2.1028 13.4269L2.13357 13.4885C2.22072 13.6514 2.34861 13.7793 2.51158 13.8665C2.65417 13.9427 2.79575 13.9878 3.12754 13.9979L3.28194 14L14 13.9999V11.1607C14 10.8846 14.2239 10.6607 14.5 10.6607C14.6078 10.6607 14.7128 10.6956 14.7992 10.7601L19.7266 14.4404C19.9478 14.6056 19.9932 14.9189 19.828 15.1402C19.7993 15.1787 19.7651 15.2128 19.7266 15.2416L14.7992 18.9218C14.578 19.087 14.2646 19.0416 14.0994 18.8204C14.0349 18.734 14 18.629 14 18.5212V15.9999L3.84583 16C2.50855 16 2.02362 15.8608 1.53473 15.5993C1.04584 15.3379 0.66216 14.9542 0.400699 14.4653C0.139239 13.9764 0 13.4915 0 12.1542V3.84571C0 2.50843 0.139239 2.0235 0.400699 1.53461C0.66216 1.04572 1.04584 0.662037 1.53473 0.400577C2.02362 0.139116 2.50855 -0.00012207 3.84583 -0.00012207H16.1542ZM20 8.99988V9.99988C20 10.5522 19.5523 10.9999 19 10.9999C18.4477 10.9999 18 10.5522 18 9.99988V8.99988H20ZM16.7181 1.99999H3.28194C2.83618 1.99999 2.67454 2.0464 2.51158 2.13355C2.34861 2.22071 2.22072 2.3486 2.13357 2.51156C2.05731 2.65416 2.01224 2.79574 2.00216 3.12753L2 3.28193V3.99988H18V3.28193C18 2.89189 17.9645 2.71938 17.8972 2.57317L17.8664 2.51156C17.7793 2.3486 17.6514 2.22071 17.4884 2.13355C17.3255 2.0464 17.1638 1.99999 16.7181 1.99999Z" fill="#4971D0"/>
</svg>
