<svg width="36" height="22" viewBox="0 0 36 22" fill="none" xmlns="http://www.w3.org/2000/svg">
<path d="M30.1431 5.28571C30.1431 2.52321 27.9056 0.285713 25.1431 0.285713C22.3806 0.285713 20.1431 2.52321 20.1431 5.28571C20.1431 8.04821 22.3806 10.2857 25.1431 10.2857C27.9056 10.2857 30.1431 8.04821 30.1431 5.28571ZM25.1431 12.4286C28.6725 12.4286 35.1431 13.6531 35.1431 18.551C35.1431 20.6939 34.5549 21 33.3784 21L23.364 21.0016C23.5966 20.3049 23.7146 19.486 23.7146 18.551C23.7146 16.1376 22.8179 14.2524 21.3277 12.846C22.6949 12.5443 24.058 12.4286 25.1431 12.4286ZM10.8574 12.4286C14.3868 12.4286 20.8574 13.6531 20.8574 18.551C20.8574 20.6939 20.2692 21 19.0927 21H2.62213C1.44566 21 0.857422 20.6939 0.857422 18.551C0.857422 13.6531 7.32801 12.4286 10.8574 12.4286ZM10.8574 0.285713C13.6199 0.285713 15.8574 2.52321 15.8574 5.28571C15.8574 8.04821 13.6199 10.2857 10.8574 10.2857C8.09492 10.2857 5.85742 8.04821 5.85742 5.28571C5.85742 2.52321 8.09492 0.285713 10.8574 0.285713Z" fill="#99A2AD"/>
</svg>
