<svg width="81" height="38" viewBox="0 0 81 38" fill="none" xmlns="http://www.w3.org/2000/svg">
<path d="M4.09055 10.7838C4.39734 10.7838 4.7723 10.818 5.21545 10.8865C5.65859 10.955 6.08469 11.0577 6.49374 11.1946C6.9028 11.3315 7.24368 11.5198 7.51638 11.7595C7.78908 11.9991 7.92543 12.273 7.92543 12.5811C7.92543 13.5396 7.90839 14.4468 7.8743 15.3027C7.84021 16.1243 7.80613 16.9802 7.77204 17.8703C7.77204 18.7604 7.75499 19.7018 7.72091 20.6946C7.68682 21.6874 7.66977 22.8342 7.66977 24.1351C7.66977 25.4018 7.68682 26.5486 7.72091 27.5757C7.75499 28.5685 7.77204 29.5099 7.77204 30.4C7.80613 31.2901 7.84021 32.1631 7.8743 33.0189C7.90839 33.8405 7.92543 34.7306 7.92543 35.6892C7.92543 36.0315 7.78908 36.3225 7.51638 36.5622C7.24368 36.7676 6.9028 36.9387 6.49374 37.0757C6.08469 37.2126 5.65859 37.3153 5.21545 37.3838C4.7723 37.4523 4.39734 37.4865 4.09055 37.4865C3.78376 37.4865 3.40879 37.4523 2.96565 37.3838C2.5225 37.3153 2.09641 37.2126 1.68735 37.0757C1.2783 36.9387 0.937417 36.7676 0.664714 36.5622C0.392011 36.3225 0.255659 36.0315 0.255659 35.6892C0.255659 34.7306 0.272703 33.8405 0.306791 33.0189C0.340879 32.1631 0.357923 31.2901 0.357923 30.4C0.392011 29.5099 0.426099 28.5685 0.460187 27.5757C0.494274 26.5486 0.511318 25.4018 0.511318 24.1351C0.511318 22.8342 0.494274 21.6874 0.460187 20.6946C0.426099 19.7018 0.392011 18.7604 0.357923 17.8703C0.357923 16.9802 0.340879 16.1243 0.306791 15.3027C0.272703 14.4468 0.255659 13.5396 0.255659 12.5811C0.255659 12.273 0.392011 11.9991 0.664714 11.7595C0.937417 11.5198 1.2783 11.3315 1.68735 11.1946C2.09641 11.0577 2.5225 10.955 2.96565 10.8865C3.40879 10.818 3.78376 10.7838 4.09055 10.7838ZM0 4.10811C0 2.80721 0.357923 1.7973 1.07377 1.07838C1.78961 0.359459 2.79521 0 4.09055 0C5.38589 0 6.39148 0.359459 7.10732 1.07838C7.82317 1.7973 8.18109 2.80721 8.18109 4.10811C8.18109 5.40901 7.82317 6.41892 7.10732 7.13784C6.39148 7.85676 5.38589 8.21622 4.09055 8.21622C2.79521 8.21622 1.78961 7.85676 1.07377 7.13784C0.357923 6.41892 0 5.40901 0 4.10811Z" fill="#464C59"/>
<path d="M10.9814 12.0676C10.9814 11.7595 11.1177 11.4856 11.3904 11.2459C11.6631 11.0063 12.004 10.818 12.4131 10.6811C12.8221 10.5441 13.2482 10.4414 13.6913 10.373C14.1345 10.3045 14.5095 10.2703 14.8162 10.2703C15.123 10.2703 15.498 10.3045 15.9411 10.373C16.3843 10.4414 16.8104 10.5441 17.2194 10.6811C17.6285 10.818 17.9694 11.0063 18.2421 11.2459C18.5148 11.4856 18.6511 11.7595 18.6511 12.0676C18.6511 12.9234 18.617 14.0018 18.5489 15.3027C18.4807 16.5694 18.4466 17.9216 18.4466 19.3595C18.4807 20.7631 18.583 22.1838 18.7534 23.6216C18.9579 25.0595 19.2818 26.3432 19.7249 27.473C20.2021 28.6027 20.8668 29.527 21.719 30.2459C22.5712 30.9649 23.6791 31.3243 25.0426 31.3243C26.4061 31.3243 27.514 30.9649 28.3662 30.2459C29.2184 29.527 29.866 28.6027 30.3092 27.473C30.7864 26.3432 31.1103 25.0595 31.2807 23.6216C31.4852 22.1838 31.5875 20.7631 31.5875 19.3595C31.6216 17.9216 31.6045 16.5694 31.5364 15.3027C31.4682 14.0018 31.4341 12.9234 31.4341 12.0676C31.4341 11.7595 31.5704 11.4856 31.8431 11.2459C32.1158 11.0063 32.4567 10.818 32.8658 10.6811C33.2748 10.5441 33.7009 10.4414 34.1441 10.373C34.5872 10.3045 34.9622 10.2703 35.269 10.2703C35.5758 10.2703 35.9507 10.3045 36.3939 10.373C36.837 10.4414 37.2631 10.5441 37.6722 10.6811C38.0812 10.818 38.4221 11.0063 38.6948 11.2459C38.9675 11.4856 39.1039 11.7595 39.1039 12.0676C39.1039 13.5739 39.0698 15.2514 39.0016 17.1C38.9334 18.9144 38.7459 20.7631 38.4392 22.6459C38.1664 24.5288 37.7403 26.3604 37.1609 28.1405C36.5814 29.9207 35.7633 31.5126 34.7065 32.9162C33.6839 34.2856 32.3715 35.3982 30.7694 36.2541C29.2013 37.0757 27.2924 37.4865 25.0426 37.4865C22.7928 37.4865 20.8668 37.0757 19.2647 36.2541C17.6967 35.3982 16.3843 34.2856 15.3276 32.9162C14.3049 31.5126 13.5039 29.9207 12.9244 28.1405C12.3449 26.3604 11.9017 24.5288 11.5949 22.6459C11.3222 20.7631 11.1518 18.9144 11.0836 17.1C11.0154 15.2514 10.9814 13.5739 10.9814 12.0676Z" fill="#464C59"/>
<path d="M45.9867 10.7838C46.2935 10.7838 46.6684 10.818 47.1116 10.8865C47.5547 10.955 47.9808 11.0577 48.3899 11.1946C48.7989 11.3315 49.1398 11.5198 49.4125 11.7595C49.6852 11.9991 49.8216 12.273 49.8216 12.5811C49.8216 13.5396 49.8045 14.4468 49.7704 15.3027C49.7364 16.1243 49.7023 16.9802 49.6682 17.8703C49.6682 18.7604 49.6511 19.7018 49.617 20.6946C49.583 21.6874 49.5659 22.8342 49.5659 24.1351C49.5659 25.4018 49.583 26.5486 49.617 27.5757C49.6511 28.5685 49.6682 29.5099 49.6682 30.4C49.7023 31.2901 49.7364 32.1631 49.7704 33.0189C49.8045 33.8405 49.8216 34.7306 49.8216 35.6892C49.8216 36.0315 49.6852 36.3225 49.4125 36.5622C49.1398 36.7676 48.7989 36.9387 48.3899 37.0757C47.9808 37.2126 47.5547 37.3153 47.1116 37.3838C46.6684 37.4523 46.2935 37.4865 45.9867 37.4865C45.6799 37.4865 45.3049 37.4523 44.8618 37.3838C44.4186 37.3153 43.9925 37.2126 43.5835 37.0757C43.1744 36.9387 42.8336 36.7676 42.5609 36.5622C42.2882 36.3225 42.1518 36.0315 42.1518 35.6892C42.1518 34.7306 42.1688 33.8405 42.2029 33.0189C42.237 32.1631 42.2541 31.2901 42.2541 30.4C42.2882 29.5099 42.3222 28.5685 42.3563 27.5757C42.3904 26.5486 42.4075 25.4018 42.4075 24.1351C42.4075 22.8342 42.3904 21.6874 42.3563 20.6946C42.3222 19.7018 42.2882 18.7604 42.2541 17.8703C42.2541 16.9802 42.237 16.1243 42.2029 15.3027C42.1688 14.4468 42.1518 13.5396 42.1518 12.5811C42.1518 12.273 42.2882 11.9991 42.5609 11.7595C42.8336 11.5198 43.1744 11.3315 43.5835 11.1946C43.9925 11.0577 44.4186 10.955 44.8618 10.8865C45.3049 10.818 45.6799 10.7838 45.9867 10.7838ZM41.8961 4.10811C41.8961 2.80721 42.2541 1.7973 42.9699 1.07838C43.6858 0.359459 44.6913 0 45.9867 0C47.282 0 48.2876 0.359459 49.0035 1.07838C49.7193 1.7973 50.0772 2.80721 50.0772 4.10811C50.0772 5.40901 49.7193 6.41892 49.0035 7.13784C48.2876 7.85676 47.282 8.21622 45.9867 8.21622C44.6913 8.21622 43.6858 7.85676 42.9699 7.13784C42.2541 6.41892 41.8961 5.40901 41.8961 4.10811Z" fill="#464C59"/>
<path d="M66.9388 10.2703C67.3478 10.2703 67.825 10.3045 68.3704 10.373C68.9158 10.4414 69.4613 10.527 70.0067 10.6297C70.5862 10.6982 71.1486 10.7838 71.694 10.8865C72.2394 10.955 72.6996 11.0234 73.0746 11.0919C73.7222 11.1946 74.0461 10.9207 74.0461 10.2703C74.012 9.51711 73.9609 8.45585 73.8927 7.08649C73.8586 5.68288 73.8416 4.09099 73.8416 2.31081C73.8416 2.0027 73.9609 1.72883 74.1995 1.48919C74.4722 1.24955 74.779 1.06126 75.1198 0.924325C75.4948 0.787387 75.8868 0.684685 76.2959 0.616217C76.739 0.547748 77.114 0.513513 77.4208 0.513513C77.7276 0.513513 78.0855 0.547748 78.4945 0.616217C78.9377 0.684685 79.3297 0.787387 79.6706 0.924325C80.0455 1.06126 80.3523 1.24955 80.5909 1.48919C80.8636 1.72883 81 2.0027 81 2.31081C81 3.57748 80.9659 5.2036 80.8977 7.18919C80.8637 9.14054 80.8125 11.1604 80.7443 13.2486C80.6762 15.3027 80.608 17.3054 80.5398 19.2568C80.5057 21.2081 80.4887 22.8342 80.4887 24.1351C80.4887 25.2306 80.5057 26.2405 80.5398 27.1649C80.5739 28.0892 80.608 28.9964 80.6421 29.8865C80.7103 30.7423 80.7614 31.5982 80.7955 32.4541C80.8636 33.3099 80.9148 34.2171 80.9489 35.1757C80.983 35.7919 80.8125 36.2883 80.4376 36.6649C80.0626 37.0414 79.5683 37.1955 78.9547 37.127C78.5457 37.0928 78.1707 37.0586 77.8298 37.0243C77.523 36.9901 77.131 36.973 76.6538 36.973C75.4948 36.973 74.4722 37.0243 73.5859 37.127C72.7337 37.2297 71.9326 37.3495 71.1827 37.4865C70.4669 37.6234 69.768 37.7432 69.0863 37.8459C68.4386 37.9486 67.7228 38 66.9388 38C64.8594 38 62.9675 37.6577 61.2631 36.973C59.5928 36.3225 58.1441 35.3982 56.9169 34.2C55.7238 32.9676 54.7864 31.5126 54.1047 29.8351C53.457 28.1234 53.1332 26.2234 53.1332 24.1351C53.1332 22.0468 53.457 20.164 54.1047 18.4865C54.7864 16.7748 55.7238 15.3198 56.9169 14.1216C58.1441 12.8892 59.5928 11.9477 61.2631 11.2973C62.9675 10.6126 64.8594 10.2703 66.9388 10.2703ZM66.9388 31.8378C69.2567 31.8378 71.0293 31.273 72.2565 30.1432C73.4836 28.9793 74.0972 26.9766 74.0972 24.1351C74.0972 21.2937 73.4836 19.3081 72.2565 18.1784C71.0293 17.0144 69.2567 16.4324 66.9388 16.4324C64.6208 16.4324 62.8482 17.0144 61.621 18.1784C60.3939 19.3081 59.7803 21.2937 59.7803 24.1351C59.7803 26.9766 60.3939 28.9793 61.621 30.1432C62.8482 31.273 64.6208 31.8378 66.9388 31.8378Z" fill="#464C59"/>
<mask id="mask0" mask-type="alpha" maskUnits="userSpaceOnUse" x="0" y="0" width="81" height="38">
<path d="M4.09055 10.7838C4.39734 10.7838 4.7723 10.818 5.21545 10.8865C5.65859 10.955 6.08469 11.0577 6.49374 11.1946C6.9028 11.3315 7.24368 11.5198 7.51638 11.7595C7.78908 11.9991 7.92543 12.273 7.92543 12.5811C7.92543 13.5396 7.90839 14.4468 7.8743 15.3027C7.84021 16.1243 7.80613 16.9802 7.77204 17.8703C7.77204 18.7604 7.75499 19.7018 7.72091 20.6946C7.68682 21.6874 7.66977 22.8342 7.66977 24.1351C7.66977 25.4018 7.68682 26.5486 7.72091 27.5757C7.75499 28.5685 7.77204 29.5099 7.77204 30.4C7.80613 31.2901 7.84021 32.1631 7.8743 33.0189C7.90839 33.8405 7.92543 34.7306 7.92543 35.6892C7.92543 36.0315 7.78908 36.3225 7.51638 36.5622C7.24368 36.7676 6.9028 36.9387 6.49374 37.0757C6.08469 37.2126 5.65859 37.3153 5.21545 37.3838C4.7723 37.4523 4.39734 37.4865 4.09055 37.4865C3.78376 37.4865 3.40879 37.4523 2.96565 37.3838C2.5225 37.3153 2.09641 37.2126 1.68735 37.0757C1.2783 36.9387 0.937417 36.7676 0.664714 36.5622C0.392011 36.3225 0.255659 36.0315 0.255659 35.6892C0.255659 34.7306 0.272703 33.8405 0.306791 33.0189C0.340879 32.1631 0.357923 31.2901 0.357923 30.4C0.392011 29.5099 0.426099 28.5685 0.460187 27.5757C0.494274 26.5486 0.511318 25.4018 0.511318 24.1351C0.511318 22.8342 0.494274 21.6874 0.460187 20.6946C0.426099 19.7018 0.392011 18.7604 0.357923 17.8703C0.357923 16.9802 0.340879 16.1243 0.306791 15.3027C0.272703 14.4468 0.255659 13.5396 0.255659 12.5811C0.255659 12.273 0.392011 11.9991 0.664714 11.7595C0.937417 11.5198 1.2783 11.3315 1.68735 11.1946C2.09641 11.0577 2.5225 10.955 2.96565 10.8865C3.40879 10.818 3.78376 10.7838 4.09055 10.7838ZM0 4.10811C0 2.80721 0.357923 1.7973 1.07377 1.07838C1.78961 0.359459 2.79521 0 4.09055 0C5.38589 0 6.39148 0.359459 7.10732 1.07838C7.82317 1.7973 8.18109 2.80721 8.18109 4.10811C8.18109 5.40901 7.82317 6.41892 7.10732 7.13784C6.39148 7.85676 5.38589 8.21622 4.09055 8.21622C2.79521 8.21622 1.78961 7.85676 1.07377 7.13784C0.357923 6.41892 0 5.40901 0 4.10811Z" fill="#4971D0"/>
<path d="M10.9814 12.0676C10.9814 11.7595 11.1177 11.4856 11.3904 11.2459C11.6631 11.0063 12.004 10.818 12.4131 10.6811C12.8221 10.5441 13.2482 10.4414 13.6913 10.373C14.1345 10.3045 14.5095 10.2703 14.8162 10.2703C15.123 10.2703 15.498 10.3045 15.9411 10.373C16.3843 10.4414 16.8104 10.5441 17.2194 10.6811C17.6285 10.818 17.9694 11.0063 18.2421 11.2459C18.5148 11.4856 18.6511 11.7595 18.6511 12.0676C18.6511 12.9234 18.617 14.0018 18.5489 15.3027C18.4807 16.5694 18.4466 17.9216 18.4466 19.3595C18.4807 20.7631 18.583 22.1838 18.7534 23.6216C18.9579 25.0595 19.2818 26.3432 19.7249 27.473C20.2021 28.6027 20.8668 29.527 21.719 30.2459C22.5712 30.9649 23.6791 31.3243 25.0426 31.3243C26.4061 31.3243 27.514 30.9649 28.3662 30.2459C29.2184 29.527 29.866 28.6027 30.3092 27.473C30.7864 26.3432 31.1103 25.0595 31.2807 23.6216C31.4852 22.1838 31.5875 20.7631 31.5875 19.3595C31.6216 17.9216 31.6045 16.5694 31.5364 15.3027C31.4682 14.0018 31.4341 12.9234 31.4341 12.0676C31.4341 11.7595 31.5704 11.4856 31.8431 11.2459C32.1158 11.0063 32.4567 10.818 32.8658 10.6811C33.2748 10.5441 33.7009 10.4414 34.1441 10.373C34.5872 10.3045 34.9622 10.2703 35.269 10.2703C35.5758 10.2703 35.9507 10.3045 36.3939 10.373C36.837 10.4414 37.2631 10.5441 37.6722 10.6811C38.0812 10.818 38.4221 11.0063 38.6948 11.2459C38.9675 11.4856 39.1039 11.7595 39.1039 12.0676C39.1039 13.5739 39.0698 15.2514 39.0016 17.1C38.9334 18.9144 38.7459 20.7631 38.4392 22.6459C38.1664 24.5288 37.7403 26.3604 37.1609 28.1405C36.5814 29.9207 35.7633 31.5126 34.7065 32.9162C33.6839 34.2856 32.3715 35.3982 30.7694 36.2541C29.2013 37.0757 27.2924 37.4865 25.0426 37.4865C22.7928 37.4865 20.8668 37.0757 19.2647 36.2541C17.6967 35.3982 16.3843 34.2856 15.3276 32.9162C14.3049 31.5126 13.5039 29.9207 12.9244 28.1405C12.3449 26.3604 11.9017 24.5288 11.5949 22.6459C11.3222 20.7631 11.1518 18.9144 11.0836 17.1C11.0154 15.2514 10.9814 13.5739 10.9814 12.0676Z" fill="#4971D0"/>
<path d="M45.9867 10.7838C46.2935 10.7838 46.6684 10.818 47.1116 10.8865C47.5547 10.955 47.9808 11.0577 48.3899 11.1946C48.7989 11.3315 49.1398 11.5198 49.4125 11.7595C49.6852 11.9991 49.8216 12.273 49.8216 12.5811C49.8216 13.5396 49.8045 14.4468 49.7704 15.3027C49.7364 16.1243 49.7023 16.9802 49.6682 17.8703C49.6682 18.7604 49.6511 19.7018 49.617 20.6946C49.583 21.6874 49.5659 22.8342 49.5659 24.1351C49.5659 25.4018 49.583 26.5486 49.617 27.5757C49.6511 28.5685 49.6682 29.5099 49.6682 30.4C49.7023 31.2901 49.7364 32.1631 49.7704 33.0189C49.8045 33.8405 49.8216 34.7306 49.8216 35.6892C49.8216 36.0315 49.6852 36.3225 49.4125 36.5622C49.1398 36.7676 48.7989 36.9387 48.3899 37.0757C47.9808 37.2126 47.5547 37.3153 47.1116 37.3838C46.6684 37.4523 46.2935 37.4865 45.9867 37.4865C45.6799 37.4865 45.3049 37.4523 44.8618 37.3838C44.4186 37.3153 43.9925 37.2126 43.5835 37.0757C43.1744 36.9387 42.8336 36.7676 42.5609 36.5622C42.2882 36.3225 42.1518 36.0315 42.1518 35.6892C42.1518 34.7306 42.1688 33.8405 42.2029 33.0189C42.237 32.1631 42.2541 31.2901 42.2541 30.4C42.2882 29.5099 42.3222 28.5685 42.3563 27.5757C42.3904 26.5486 42.4075 25.4018 42.4075 24.1351C42.4075 22.8342 42.3904 21.6874 42.3563 20.6946C42.3222 19.7018 42.2882 18.7604 42.2541 17.8703C42.2541 16.9802 42.237 16.1243 42.2029 15.3027C42.1688 14.4468 42.1518 13.5396 42.1518 12.5811C42.1518 12.273 42.2882 11.9991 42.5609 11.7595C42.8336 11.5198 43.1744 11.3315 43.5835 11.1946C43.9925 11.0577 44.4186 10.955 44.8618 10.8865C45.3049 10.818 45.6799 10.7838 45.9867 10.7838ZM41.8961 4.10811C41.8961 2.80721 42.2541 1.7973 42.9699 1.07838C43.6858 0.359459 44.6913 0 45.9867 0C47.282 0 48.2876 0.359459 49.0035 1.07838C49.7193 1.7973 50.0772 2.80721 50.0772 4.10811C50.0772 5.40901 49.7193 6.41892 49.0035 7.13784C48.2876 7.85676 47.282 8.21622 45.9867 8.21622C44.6913 8.21622 43.6858 7.85676 42.9699 7.13784C42.2541 6.41892 41.8961 5.40901 41.8961 4.10811Z" fill="#4971D0"/>
<path d="M66.9388 10.2703C67.3478 10.2703 67.825 10.3045 68.3704 10.373C68.9158 10.4414 69.4613 10.527 70.0067 10.6297C70.5862 10.6982 71.1486 10.7838 71.694 10.8865C72.2394 10.955 72.6996 11.0234 73.0746 11.0919C73.7222 11.1946 74.0461 10.9207 74.0461 10.2703C74.012 9.51711 73.9609 8.45585 73.8927 7.08649C73.8586 5.68288 73.8416 4.09099 73.8416 2.31081C73.8416 2.0027 73.9609 1.72883 74.1995 1.48919C74.4722 1.24955 74.779 1.06126 75.1198 0.924325C75.4948 0.787387 75.8868 0.684685 76.2959 0.616217C76.739 0.547748 77.114 0.513513 77.4208 0.513513C77.7276 0.513513 78.0855 0.547748 78.4945 0.616217C78.9377 0.684685 79.3297 0.787387 79.6706 0.924325C80.0455 1.06126 80.3523 1.24955 80.5909 1.48919C80.8636 1.72883 81 2.0027 81 2.31081C81 3.57748 80.9659 5.2036 80.8977 7.18919C80.8637 9.14054 80.8125 11.1604 80.7443 13.2486C80.6762 15.3027 80.608 17.3054 80.5398 19.2568C80.5057 21.2081 80.4887 22.8342 80.4887 24.1351C80.4887 25.2306 80.5057 26.2405 80.5398 27.1649C80.5739 28.0892 80.608 28.9964 80.6421 29.8865C80.7103 30.7423 80.7614 31.5982 80.7955 32.4541C80.8636 33.3099 80.9148 34.2171 80.9489 35.1757C80.983 35.7919 80.8125 36.2883 80.4376 36.6649C80.0626 37.0414 79.5683 37.1955 78.9547 37.127C78.5457 37.0928 78.1707 37.0586 77.8298 37.0243C77.523 36.9901 77.131 36.973 76.6538 36.973C75.4948 36.973 74.4722 37.0243 73.5859 37.127C72.7337 37.2297 71.9326 37.3495 71.1827 37.4865C70.4669 37.6234 69.768 37.7432 69.0863 37.8459C68.4386 37.9486 67.7228 38 66.9388 38C64.8594 38 62.9675 37.6577 61.2631 36.973C59.5928 36.3225 58.1441 35.3982 56.9169 34.2C55.7238 32.9676 54.7864 31.5126 54.1047 29.8351C53.457 28.1234 53.1332 26.2234 53.1332 24.1351C53.1332 22.0468 53.457 20.164 54.1047 18.4865C54.7864 16.7748 55.7238 15.3198 56.9169 14.1216C58.1441 12.8892 59.5928 11.9477 61.2631 11.2973C62.9675 10.6126 64.8594 10.2703 66.9388 10.2703ZM66.9388 31.8378C69.2567 31.8378 71.0293 31.273 72.2565 30.1432C73.4836 28.9793 74.0972 26.9766 74.0972 24.1351C74.0972 21.2937 73.4836 19.3081 72.2565 18.1784C71.0293 17.0144 69.2567 16.4324 66.9388 16.4324C64.6208 16.4324 62.8482 17.0144 61.621 18.1784C60.3939 19.3081 59.7803 21.2937 59.7803 24.1351C59.7803 26.9766 60.3939 28.9793 61.621 30.1432C62.8482 31.273 64.6208 31.8378 66.9388 31.8378Z" fill="#4971D0"/>
</mask>
<g mask="url(#mask0)">
<g filter="url(#filter0_d)">
<circle cx="16.5" cy="20.5" r="30.5" fill="#4971D0"/>
</g>
</g>
<defs>
<filter id="filter0_d" x="-39" y="-31" width="111" height="111" filterUnits="userSpaceOnUse" color-interpolation-filters="sRGB">
<feFlood flood-opacity="0" result="BackgroundImageFix"/>
<feColorMatrix in="SourceAlpha" type="matrix" values="0 0 0 0 0 0 0 0 0 0 0 0 0 0 0 0 0 0 127 0"/>
<feOffset dy="4"/>
<feGaussianBlur stdDeviation="12.5"/>
<feColorMatrix type="matrix" values="0 0 0 0 0 0 0 0 0 0 0 0 0 0 0 0 0 0 0.25 0"/>
<feBlend mode="normal" in2="BackgroundImageFix" result="effect1_dropShadow"/>
<feBlend mode="normal" in="SourceGraphic" in2="effect1_dropShadow" result="shape"/>
</filter>
</defs>
</svg>
