<svg width="140" height="116" viewBox="0 0 140 116" fill="none" xmlns="http://www.w3.org/2000/svg">
<g clip-path="url(#clip0)">
<path opacity="0.15" d="M139.867 83.8161C139.594 88.6071 139.039 93.4727 137.11 97.8621C133.586 105.891 125.722 111.44 117.3 113.883C115.158 114.497 112.974 114.951 110.765 115.241C104.314 116.115 97.6758 115.734 91.1911 114.935C85.6257 114.248 80.0935 113.254 74.5364 112.492C71.4058 112.078 68.2629 111.705 65.1117 111.519C59.0784 111.167 53.0326 111.432 47.0035 111.867C46.7219 111.867 46.4362 111.904 46.1753 111.929C40.6969 112.343 35.1315 112.869 29.711 112.206C28.4568 112.059 27.2123 111.838 25.9842 111.544C25.352 111.395 24.7267 111.221 24.1084 111.022C17.8763 109.047 12.4103 104.902 7.60271 100.624C2.65432 96.2223 0.335411 89.398 0.111802 82.9134C-0.153217 75.2775 -1.18844 62.5277 24.7171 41.6161C30.1582 37.2019 29.6986 28.5515 32.2867 22.0337C36.0135 12.6877 43.6493 4.71643 53.2438 1.68114C57.3847 0.364335 61.7865 -0.0290516 66.1386 0.0247802C71.6715 0.0704842 77.1781 0.790799 82.5366 2.16977C92.657 4.75784 104.666 10.0127 112.297 18.0833C113.617 19.4679 114.809 20.9688 115.858 22.5679C122.36 32.5392 121.627 45.5127 128.318 55.4219C131.217 59.6994 135.358 63.1033 137.66 67.7287C140.116 72.6149 140.182 78.3418 139.867 83.8161Z" fill="#4971D0"/>
<path d="M47.0034 111.867C46.7219 111.867 46.4361 111.904 46.1753 111.929C40.6968 112.343 35.1315 112.869 29.711 112.206C28.4568 112.059 27.2123 111.838 25.9842 111.544C25.352 111.395 24.7267 111.221 24.1084 111.022C23.5535 93.357 38.7216 69.9609 40.5685 67.1533L46.2539 67.3935L64.2213 68.1513C47.9766 83.572 46.4527 102.119 47.0034 111.867Z" fill="#84A6F7"/>
<path d="M47.0034 111.867C46.7219 111.867 46.4361 111.904 46.1753 111.929C40.6968 112.343 35.1315 112.869 29.711 112.206C28.4568 112.059 27.2123 111.838 25.9842 111.544C25.352 111.395 24.7267 111.221 24.1084 111.022C23.5535 93.357 38.7216 69.9609 40.5685 67.1533L46.2539 67.3935L64.2213 68.1513C47.9766 83.572 46.4527 102.119 47.0034 111.867Z" fill="url(#paint0_linear)"/>
<path d="M46.7799 66.8799C46.5977 67.0497 46.4197 67.2194 46.2458 67.3934C29.5827 83.6257 28.9036 103.109 29.6904 112.198C28.4362 112.051 27.1917 111.829 25.9636 111.535C25.3314 111.386 24.7061 111.212 24.0878 111.014C23.5536 93.3569 38.7217 69.9607 40.5686 67.1532L40.7549 66.8799H46.7799Z" fill="#84A6F7"/>
<path d="M88.218 29.3799C87.5389 30.6222 87.7501 32.1212 87.452 33.4918C87.3634 33.8797 87.25 34.2614 87.1124 34.6347C86.5907 36.1337 85.9323 37.6741 84.6776 38.6472C84.2913 38.8706 83.9723 39.1939 83.7541 39.5831C83.691 39.7849 83.6772 39.9989 83.7139 40.2072C83.7507 40.4154 83.8369 40.6118 83.9653 40.7798C84.2288 41.1032 84.5418 41.3827 84.8929 41.608C84.8225 42.3244 84.8432 43.1733 84.7687 43.8855C84.6072 45.4632 84.5036 47.2396 85.5472 48.4405C86.3753 49.3639 87.6507 49.6828 88.8599 49.8236C90.069 49.9643 91.3444 50.0389 92.4294 50.6517C94.7151 51.923 95.328 55.1529 97.6013 56.449C98.2784 56.807 99.0205 57.0253 99.7836 57.0909C101.394 57.3193 103.035 57.0169 104.459 56.2295C105.846 55.4014 110.384 54.0514 109.154 53.0038C107.813 51.865 105.755 48.6351 104.794 46.9166C103.725 45.0064 102.997 42.9239 102.645 40.7632C102.355 38.9619 102.326 37.1317 102.057 35.3304C101.788 33.5291 101.229 31.7071 100.073 30.3074C98.3302 28.237 95.4812 27.4088 92.7731 27.2556C92.0169 27.1795 91.2532 27.2355 90.5162 27.4212C90.147 27.5146 89.8009 27.683 89.4995 27.916C89.1982 28.1489 88.948 28.4415 88.7646 28.7753" fill="#F9BA9F"/>
<path d="M114.902 37.8436C114.794 38.8009 114.53 39.7341 114.119 40.6056C113.883 41.1929 113.545 41.734 113.121 42.204C112.293 42.941 112.268 44.1874 111.759 45.1606C111.411 45.7823 110.929 46.3184 110.347 46.73C109.183 47.5891 107.825 48.1485 106.394 48.3586C104.963 48.5688 103.501 48.4233 102.14 47.935L101.726 47.7776C100.509 47.2099 99.3558 46.5159 98.2845 45.7072C98.2172 45.6628 98.1629 45.6013 98.1271 45.5291C98.0567 45.3552 98.2058 45.1813 98.3383 45.0446C98.7758 44.5954 99.1203 44.0642 99.3519 43.4815C99.5836 42.8988 99.6979 42.2761 99.6882 41.6491C99.7094 41.113 99.544 40.5862 99.2203 40.1583C99.0525 39.9513 98.8193 39.8074 98.559 39.7502C98.2987 39.693 98.0267 39.726 97.7876 39.8436C97.3735 40.0797 96.9594 40.6428 96.6033 40.3405C96.4986 40.2263 96.4346 40.0808 96.4211 39.9265C96.3022 39.0046 96.0584 38.1033 95.6964 37.2473C95.2094 36.4205 94.6101 35.6652 93.9158 35.0029C92.302 33.2244 91.0051 31.1823 90.0813 28.9655C90.0259 28.7659 89.903 28.5917 89.7335 28.4727C89.5748 28.403 89.3996 28.38 89.2283 28.4064C88.4733 28.4506 87.7161 28.4368 86.9632 28.365C86.5792 28.3648 86.2062 28.2366 85.9032 28.0006C85.3897 27.5079 85.6216 26.63 86.0357 26.0544C86.9757 24.7335 88.5451 24.0419 90.0399 23.4166C89.6548 23.164 89.0461 22.6092 88.661 22.3566C88.5279 22.287 88.4205 22.1768 88.3546 22.0419C88.2718 21.7851 88.5202 21.5367 88.7687 21.4124C89.2017 21.193 89.6922 21.1134 90.1724 21.1847C90.102 20.0418 88.8763 18.9817 89.3442 17.9382C89.6631 17.2508 90.5865 17.0728 91.3236 17.255C92.0607 17.4372 92.6984 17.8885 93.4148 18.1287C93.5763 17.6277 93.129 17.1059 93.2119 16.5841C93.2563 16.3972 93.3526 16.2266 93.4895 16.0919C93.6265 15.9571 93.7986 15.8637 93.9862 15.8222C94.368 15.747 94.7626 15.7698 95.1332 15.8885C96.0006 16.1207 96.8045 16.5453 97.4853 17.1307C97.8832 17.5513 98.3326 17.9199 98.8228 18.2281C99.7918 18.7291 100.955 18.4517 102.044 18.4517C103.328 18.5033 104.592 18.7911 105.771 19.3006C106.554 19.5944 107.32 19.9317 108.065 20.311C109.059 20.8057 109.987 21.4234 110.827 22.1495C112.947 24.0129 114.273 26.6673 114.856 29.4251C115.377 32.2058 115.392 35.0574 114.902 37.8436Z" fill="#D4FFC7"/>
<path d="M18.4644 24.5931L20.5762 22.3818L70.7682 24.5931L82.4373 65.9359L80.3254 68.1472H27.9181L18.4644 24.5931Z" fill="#84A6F7"/>
<path d="M18.4644 24.5931L20.5762 22.3818L70.7682 24.5931L82.4373 65.9359L80.3254 68.1472H27.9181L18.4644 24.5931Z" fill="url(#paint1_linear)"/>
<path d="M20.5762 22.3818H72.88L82.4372 65.9359H30.0299L20.5762 22.3818Z" fill="#84A6F7"/>
<path d="M22.688 23.8682H71.4224L80.3253 64.4491H31.4957L22.688 23.8682Z" fill="white"/>
<path d="M60.7266 81.1659C60.6922 81.4587 60.5851 81.7382 60.4152 81.979C60.2452 82.2198 60.0177 82.4143 59.7535 82.5448C58.9915 82.9921 58.0598 83.0169 57.1737 83.0293C56.5591 83.0835 55.9402 83.003 55.36 82.7933C54.8649 82.5264 54.4206 82.1746 54.0473 81.7539C51.894 79.6835 49.0327 78.1141 47.9643 75.3355C47.4467 73.9856 47.4218 72.5073 47.4053 71.0704C47.4053 69.5424 47.4053 67.8653 48.4198 66.7183C49.2107 65.8114 50.5192 65.3518 51.0327 64.2627C50.1683 63.7763 49.3835 63.1605 48.7055 62.4366C48.3712 62.0707 48.1232 61.6345 47.9799 61.1601C47.8366 60.6856 47.8015 60.1851 47.8773 59.6953C49.077 60.0951 50.2262 60.6329 51.3019 61.2978C53.2639 62.5106 54.9625 64.1049 56.2969 65.9863C57.6313 67.8677 58.5744 69.9979 59.0702 72.2505C59.4843 74.2423 59.5257 76.3128 60.0723 78.2797C60.3166 79.1907 60.8342 80.2508 60.7266 81.1659Z" fill="#F9BA9F"/>
<path d="M60.7265 81.1659C60.5294 81.2538 60.353 81.3822 60.2089 81.5427C59.6498 82.3709 58.2709 82.1597 57.567 81.4351C56.863 80.7104 56.5897 79.6876 56.1094 78.7973C54.9085 76.5405 52.308 74.8427 52.3163 72.2878C52.3163 70.3126 53.9727 68.561 53.8236 66.6189C53.7408 65.592 53.1817 64.7555 52.5813 63.977C52.0235 63.154 51.5948 62.2505 51.3101 61.2979C53.2721 62.5106 54.9707 64.1049 56.3051 65.9863C57.6395 67.8677 58.5826 69.9979 59.0784 72.2505C59.4925 74.2423 59.5339 76.3128 60.0805 78.2797C60.3165 79.1907 60.8341 80.2508 60.7265 81.1659Z" fill="url(#paint2_linear)"/>
<path d="M113.535 107.99C113.026 110.537 112.264 113.171 110.765 115.241C110.55 115.27 110.351 115.299 110.119 115.32C108.827 115.477 107.53 115.589 106.227 115.655C101.203 115.85 96.1728 115.609 91.1911 114.935C85.6257 114.247 80.0935 113.254 74.5364 112.492C74.7962 112.198 75.0943 111.94 75.4225 111.726C77.0838 110.49 78.4531 108.905 79.4334 107.082C80.4138 105.258 80.9812 103.242 81.0956 101.175C80.7661 100.955 80.3817 100.831 79.9858 100.818C78.934 100.719 77.58 100.947 76.8056 100.852C70.3706 100.044 54.1755 84.2548 54.1755 84.2548L62.2213 80.2298L74.1927 84.2548C74.1927 84.2548 87.0668 64.0389 92.2967 58.2375C97.5267 52.4361 106.96 52.316 106.96 52.316C108.09 52.2736 109.22 52.4135 110.306 52.7301C116.716 54.6059 120.02 62.3784 120.451 68.9583C121.316 81.9028 116.037 95.5057 113.535 107.99Z" fill="white"/>
<path d="M114.902 37.844C114.794 38.8014 114.53 39.7345 114.119 40.606C113.883 41.1934 113.545 41.7344 113.121 42.2044C112.293 42.9415 112.268 44.1879 111.759 45.161C111.411 45.7827 110.928 46.3189 110.347 46.7304C109.183 47.5896 107.825 48.1489 106.394 48.3591C104.962 48.5692 103.501 48.4237 102.139 47.9354L101.725 47.7781C101.547 47.4988 101.408 47.1965 101.311 46.8795L102.968 46.8215C102.936 46.241 102.701 45.69 102.305 45.2645L106.077 45.19C106.593 45.2511 107.114 45.1401 107.559 44.8742C108.005 44.6083 108.35 44.2025 108.541 43.72C109.113 42.8338 109.705 41.8649 109.61 40.8214C109.513 40.2074 109.298 39.6181 108.976 39.0863C108.148 37.4672 107.32 35.7736 107.088 33.9806C106.856 32.1876 107.39 30.1627 108.835 29.0446C109.14 28.8558 109.409 28.6147 109.63 28.3324C109.815 27.9924 109.88 27.5997 109.813 27.2185C109.622 25.4876 108.276 24.1418 107.009 22.9409L104.206 20.27C104.52 20.5723 105.953 20.6096 106.421 20.7586C107.209 21.0286 107.982 21.341 108.736 21.6945C108.62 21.3508 108.322 20.8663 108.061 20.3114C109.055 20.8061 109.983 21.4238 110.823 22.15C112.943 24.0134 114.268 26.6677 114.852 29.4256C115.374 32.206 115.391 35.0576 114.902 37.844Z" fill="#BAF8A7"/>
<path d="M113.535 107.991C113.026 110.537 112.264 113.171 110.765 115.241C110.55 115.27 110.351 115.299 110.119 115.32C104.351 115.896 98.9388 116.376 93.2078 115.121C92.3175 114.927 91.2657 114.537 91.1083 113.639C91.075 113.119 91.2085 112.603 91.4893 112.165C95.4149 104.239 97.9284 95.046 97.8207 86.1596C95.684 85.8905 93.0463 90.0272 91.4893 91.4393L85.7624 96.632C83.2779 98.8681 80.4206 101.253 77.1038 100.992C75.1493 100.839 73.4018 99.7749 71.7206 98.7397L65.8281 95.046C64.093 93.9653 62.2089 92.6857 61.7534 90.6898C64.5237 90.901 66.9503 92.5077 69.4348 93.7458C71.9193 94.9839 74.9132 95.8908 77.4102 94.6775C79.2073 93.8038 80.3502 92.019 81.4186 90.3337C88.4353 79.2425 96.1285 68.594 104.454 58.4487C106.463 56.0014 106.798 52.3533 110.318 52.7466C116.728 54.6225 120.033 62.395 120.463 68.9749C121.316 81.9028 116.037 95.5057 113.535 107.991Z" fill="url(#paint3_linear)"/>
<path opacity="0.18" d="M34.6965 31.8931C35.1324 31.333 35.6794 30.8691 36.3032 30.5307C37.0162 30.1048 37.8004 29.8116 38.618 29.6653C39.6725 29.5298 40.7442 29.66 41.7357 30.044C42.7272 30.428 43.607 31.0537 44.2952 31.8641C45.6594 33.5221 46.3668 35.6236 46.2828 37.7691C46.5613 37.6746 46.864 37.6799 47.139 37.7842C47.414 37.8884 47.6442 38.0851 47.7901 38.3405C48.0623 38.865 48.1637 39.4616 48.0799 40.0466C48.0717 40.5369 47.9284 41.0154 47.6659 41.4296C47.5303 41.6335 47.3349 41.7904 47.1065 41.8786C46.878 41.9669 46.6279 41.9822 46.3905 41.9224C46.5319 42.5253 46.5354 43.1524 46.4006 43.7569C46.2658 44.3613 45.9962 44.9275 45.612 45.4132C45.289 45.8273 44.8707 46.1958 44.7838 46.7051C44.701 47.3428 45.1979 47.9226 45.7942 48.2C46.3984 48.4175 47.0151 48.5987 47.641 48.7425C48.9954 49.2623 50.1092 50.2655 50.7674 51.5583C51.4151 52.8416 51.9006 54.2007 52.2126 55.604C52.2871 55.8855 52.3451 56.2292 52.1298 56.4321C51.9751 56.5436 51.7853 56.595 51.5956 56.5771L35.1934 57.0864C35.0071 55.1857 34.8994 53.0366 36.179 51.6163C37.1687 50.5231 38.7256 50.1876 40.175 49.9061C40.1572 49.0682 39.961 48.2438 39.5994 47.4878C39.5054 47.252 39.3495 47.0459 39.148 46.8915C38.9286 46.7781 38.6923 46.7012 38.4482 46.6637C36.8374 46.2496 35.9636 44.5146 35.5496 42.9038C35.4967 42.6119 35.393 42.3316 35.2431 42.0756C35.0059 41.7844 34.7058 41.5508 34.3653 41.3924C32.3652 40.2453 31.947 38.9658 33.388 37.2514C34.6841 35.7731 33.4377 33.6281 34.6965 31.8931Z" fill="#84A6F7"/>
<path opacity="0.32" d="M4.7207 9.29639L11.6153 43.4299H32.2081L26.3735 9.29639H4.7207Z" fill="#84A6F7"/>
<path opacity="0.32" d="M11.0273 55.7944L17.9178 89.9321H38.5106L32.676 55.7944H11.0273Z" fill="#84A6F7"/>
<path opacity="0.32" d="M53.0327 9.29639L59.9232 43.4299H80.5159L74.6814 9.29639H53.0327Z" fill="#84A6F7"/>
<path d="M55.2148 5.79297L62.1053 39.9265H82.6981L76.8635 5.79297H55.2148Z" fill="url(#paint4_linear)"/>
<path d="M8.43921 10.228L14.5263 40.378H32.7132L27.5619 10.228H8.43921Z" fill="#4C74D2"/>
<path d="M8.43921 10.228L14.5263 40.378H32.7132L27.5619 10.228H8.43921Z" fill="url(#paint5_linear)"/>
<path d="M12.5676 54.2954L19.4581 88.4289H40.0508L34.2163 54.2954H12.5676Z" fill="#4C74D2"/>
<path d="M12.5676 54.2954L19.4581 88.4289H40.0508L34.2163 54.2954H12.5676Z" fill="url(#paint6_linear)"/>
</g>
<defs>
<linearGradient id="paint0_linear" x1="23.4499" y1="44.0636" x2="75.0539" y2="157.525" gradientUnits="userSpaceOnUse">
<stop offset="0.01"/>
<stop offset="0.13" stop-opacity="0.69"/>
<stop offset="0.25" stop-opacity="0.32"/>
<stop offset="1" stop-opacity="0"/>
</linearGradient>
<linearGradient id="paint1_linear" x1="9234.4" y1="3484.53" x2="4771.09" y2="12933.9" gradientUnits="userSpaceOnUse">
<stop offset="0.01"/>
<stop offset="0.13" stop-opacity="0.69"/>
<stop offset="0.25" stop-opacity="0.32"/>
<stop offset="1" stop-opacity="0"/>
</linearGradient>
<linearGradient id="paint2_linear" x1="1744.26" y1="3418.84" x2="872.466" y2="3645.71" gradientUnits="userSpaceOnUse">
<stop offset="0.01"/>
<stop offset="0.13" stop-opacity="0.69"/>
<stop offset="0.25" stop-opacity="0.32"/>
<stop offset="1" stop-opacity="0"/>
</linearGradient>
<linearGradient id="paint3_linear" x1="34079.9" y1="11188.7" x2="-7761" y2="15460" gradientUnits="userSpaceOnUse">
<stop offset="0.01"/>
<stop offset="0.13" stop-opacity="0.69"/>
<stop offset="0.25" stop-opacity="0.32"/>
<stop offset="1" stop-opacity="0"/>
</linearGradient>
<linearGradient id="paint4_linear" x1="50.225" y1="8.66676" x2="241.34" y2="149.491" gradientUnits="userSpaceOnUse">
<stop offset="0.01" stop-color="white"/>
<stop offset="0.13" stop-color="white" stop-opacity="0.69"/>
<stop offset="0.15" stop-color="white" stop-opacity="0.61"/>
<stop offset="0.2" stop-color="white" stop-opacity="0.47"/>
<stop offset="0.25" stop-color="white" stop-opacity="0.34"/>
<stop offset="0.3" stop-color="white" stop-opacity="0.23"/>
<stop offset="0.36" stop-color="white" stop-opacity="0.15"/>
<stop offset="0.44" stop-color="white" stop-opacity="0.08"/>
<stop offset="0.52" stop-color="white" stop-opacity="0.03"/>
<stop offset="0.65" stop-color="white" stop-opacity="0.01"/>
<stop offset="1" stop-color="white" stop-opacity="0"/>
</linearGradient>
<linearGradient id="paint5_linear" x1="20.5762" y1="10.228" x2="20.5762" y2="40.378" gradientUnits="userSpaceOnUse">
<stop stop-color="white"/>
<stop offset="1" stop-color="white" stop-opacity="0"/>
</linearGradient>
<linearGradient id="paint6_linear" x1="26.3092" y1="54.2954" x2="26.3092" y2="88.4289" gradientUnits="userSpaceOnUse">
<stop stop-color="white"/>
<stop offset="1" stop-color="white" stop-opacity="0"/>
</linearGradient>
<clipPath id="clip0">
<rect width="140" height="115.912" fill="white"/>
</clipPath>
</defs>
</svg>
