<svg width="16" height="16" viewBox="0 0 16 16" fill="none" xmlns="http://www.w3.org/2000/svg">
<path d="M14.4688 0.96875H1.53125C1.22012 0.96875 0.96875 1.22012 0.96875 1.53125V14.4688C0.96875 14.7799 1.22012 15.0312 1.53125 15.0312H14.4688C14.7799 15.0312 15.0312 14.7799 15.0312 14.4688V1.53125C15.0312 1.22012 14.7799 0.96875 14.4688 0.96875ZM11.2256 5.42832L7.52363 10.5611C7.47189 10.6334 7.40368 10.6922 7.32466 10.7328C7.24564 10.7734 7.15808 10.7946 7.06924 10.7946C6.9804 10.7946 6.89284 10.7734 6.81382 10.7328C6.73479 10.6922 6.66658 10.6334 6.61484 10.5611L4.42285 7.52363C4.35605 7.43047 4.42285 7.30039 4.53711 7.30039H5.36152C5.54082 7.30039 5.71133 7.38652 5.8168 7.53418L7.06836 9.2709L9.83164 5.43887C9.93711 5.29297 10.1059 5.20508 10.2869 5.20508H11.1113C11.2256 5.20508 11.2924 5.33516 11.2256 5.42832Z" fill="#4971D0"/>
</svg>
