<svg width="68" height="68" viewBox="0 0 68 68" fill="none" xmlns="http://www.w3.org/2000/svg">
<path d="M34.0001 0.666412C52.4052 0.666412 67.3334 15.5895 67.3334 33.9997C67.3334 52.41 52.4052 67.3331 34.0001 67.3331C15.5898 67.3331 0.666748 52.41 0.666748 33.9997C0.666748 15.5895 15.5898 0.666412 34.0001 0.666412ZM34.0001 7.33308C19.2719 7.33308 7.33342 19.2715 7.33342 33.9997C7.33342 48.7279 19.2719 60.6664 34.0001 60.6664C48.7242 60.6664 60.6668 48.7279 60.6668 33.9997C60.6668 19.2715 48.7242 7.33308 34.0001 7.33308ZM31.7962 17.4869C33.6372 17.4869 35.1296 18.9793 35.1296 20.8203V33.6L47.6651 37.786C49.4088 38.3763 50.3439 40.2684 49.7536 42.0122C49.1632 43.7559 47.2711 44.691 45.5274 44.1007L30.7274 39.0904C29.3738 38.6322 28.4629 37.3621 28.4629 35.9331V20.8203C28.4629 18.9793 29.9553 17.4869 31.7962 17.4869Z" fill="white"/>
</svg>
