<svg width="78" height="58" viewBox="0 0 78 58" fill="none" xmlns="http://www.w3.org/2000/svg">
<path d="M17.3033 1.32612C18.5741 2.6581 18.5245 4.76807 17.1925 6.03886C17.1654 6.06472 17.1654 6.06472 17.0836 6.14296C17.0431 6.18178 17.0431 6.18178 17.0144 6.20946C10.8662 12.142 7.33342 20.2855 7.33342 29C7.33342 37.7637 10.9066 45.9493 17.116 51.8882C18.4465 53.1606 18.4935 55.2706 17.221 56.6011C15.9486 57.9315 13.8386 57.9785 12.5081 56.706C4.99689 49.5221 0.666748 39.6023 0.666748 29C0.666748 18.4573 4.94807 8.58831 12.3852 1.41203C12.427 1.3718 12.427 1.3718 12.4719 1.32874C12.5609 1.2436 12.5609 1.2436 12.5906 1.21534C13.9225 -0.0554582 16.0325 -0.00585857 17.3033 1.32612ZM60.6969 1.32612C61.9677 -0.00585857 64.0776 -0.0554582 65.4096 1.21534C65.4392 1.2436 65.4392 1.2436 65.5282 1.32874C65.5732 1.3718 65.5732 1.3718 65.615 1.41203C73.0521 8.58831 77.3334 18.4573 77.3334 29C77.3334 39.6023 73.0033 49.5221 65.492 56.706C64.1616 57.9785 62.0516 57.9315 60.7792 56.6011C59.5067 55.2706 59.5537 53.1606 60.8841 51.8882C67.0936 45.9493 70.6668 37.7637 70.6668 29C70.6668 20.2855 67.134 12.142 60.9858 6.20946C60.9571 6.18178 60.9571 6.18178 60.9165 6.14296C60.8347 6.06472 60.8347 6.06472 60.8076 6.03886C59.4757 4.76807 59.4261 2.6581 60.6969 1.32612ZM28.4593 12.6476C29.7074 14.0009 29.6222 16.1097 28.2689 17.3578C25.0362 20.3394 23.1667 24.5158 23.1667 29C23.1667 33.4831 25.0352 37.6584 28.2665 40.6399C29.6195 41.8883 29.7043 43.9972 28.4559 45.3502C27.2076 46.7032 25.0987 46.788 23.7457 45.5396C19.1604 41.3088 16.5001 35.3639 16.5001 29C16.5001 22.6345 19.1618 16.6882 23.7491 12.4573C25.1023 11.2092 27.2112 11.2944 28.4593 12.6476ZM49.5409 12.6476C50.789 11.2944 52.8978 11.2092 54.2511 12.4573C58.8384 16.6882 61.5001 22.6345 61.5001 29C61.5001 35.3639 58.8397 41.3088 54.2545 45.5396C52.9015 46.788 50.7926 46.7032 49.5442 45.3502C48.2958 43.9972 48.3806 41.8883 49.7336 40.6399C52.965 37.6584 54.8334 33.4831 54.8334 29C54.8334 24.5158 52.964 20.3394 49.7312 17.3578C48.378 16.1097 48.2928 14.0009 49.5409 12.6476ZM39.0001 21.5C43.1422 21.5 46.5001 24.8578 46.5001 29C46.5001 33.1421 43.1422 36.5 39.0001 36.5C34.858 36.5 31.5001 33.1421 31.5001 29C31.5001 24.8578 34.858 21.5 39.0001 21.5Z" fill="white"/>
</svg>
