<svg width="54" height="60" viewBox="0 0 54 60" fill="none" xmlns="http://www.w3.org/2000/svg">
<path d="M26.9999 0C36.2047 0 43.6666 7.46192 43.6666 16.6667L43.6632 23.3333H45.1203C48.092 23.3333 49.1696 23.6428 50.2561 24.2238C51.3425 24.8048 52.1951 25.6574 52.7761 26.7438C53.3572 27.8303 53.6666 28.9079 53.6666 31.8796V51.4537C53.6666 54.4254 53.3572 55.5031 52.7761 56.5895C52.1951 57.6759 51.3425 58.5285 50.2561 59.1096C49.1696 59.6906 48.092 60 45.1203 60H8.87953C5.90781 60 4.83019 59.6906 3.74377 59.1096C2.65735 58.5285 1.80472 57.6759 1.22369 56.5895C0.642671 55.5031 0.333252 54.4254 0.333252 51.4537V31.8796C0.333252 28.9079 0.642671 27.8303 1.22369 26.7438C1.80472 25.6574 2.65735 24.8048 3.74377 24.2238C4.83019 23.6428 5.90781 23.3333 8.87953 23.3333H10.3299L10.3333 16.6667C10.3333 7.46192 17.7952 0 26.9999 0ZM26.9999 6.66667C21.4771 6.66667 16.9999 11.1438 16.9999 16.6667L16.9966 23.3333H36.9966L36.9999 16.6667C36.9999 11.1438 32.5228 6.66667 26.9999 6.66667Z" fill="white"/>
</svg>
