<svg width="32" height="32" viewBox="0 0 32 32" fill="none" xmlns="http://www.w3.org/2000/svg">
<path d="M20.6473 15.9953C20.6473 18.5578 18.5682 20.6369 16.0057 20.6369C13.4431 20.6369 11.364 18.5578 11.364 15.9953C11.364 13.4327 13.4431 11.3536 16.0057 11.3536C18.5682 11.3536 20.6473 13.4424 20.6473 15.9953ZM16.0057 0.571533C7.49602 0.571533 0.572266 7.49529 0.572266 16.0049C0.572266 24.5146 7.49602 31.4287 16.0057 31.4287C19.1194 31.4287 22.1268 30.5003 24.699 28.7404L24.7474 28.7114L22.6683 26.2939L22.6296 26.3132C20.6473 27.58 18.3651 28.2569 16.0057 28.2569C9.2463 28.2569 3.74404 22.7546 3.74404 15.9953C3.74404 9.2359 9.2463 3.73364 16.0057 3.73364C22.765 3.73364 28.2673 9.2359 28.2673 15.9953C28.2673 16.8752 28.1706 17.7552 27.9772 18.6352C27.5904 20.2308 26.4783 20.7143 25.637 20.6466C24.7957 20.5789 23.8094 19.9793 23.7997 18.5095V15.9953C23.7997 11.6921 20.2992 8.19154 15.996 8.19154C11.6928 8.19154 8.19226 11.6921 8.19226 15.9953C8.19226 20.2984 11.6928 23.799 15.996 23.799C18.0847 23.799 20.0477 22.977 21.5273 21.4975C22.3879 22.832 23.79 23.6733 25.3856 23.799C25.521 23.8087 25.666 23.8183 25.8014 23.8183C26.9231 23.8183 28.0352 23.4412 28.9345 22.7643C29.8628 22.0584 30.5494 21.043 30.9265 19.8246C30.9846 19.6312 31.1006 19.1767 31.1006 19.1767V19.1574C31.323 18.1807 31.4294 17.204 31.4294 15.9953C31.439 7.49529 24.5153 0.571533 16.0057 0.571533Z" fill="#4971D0"/>
</svg>
