<svg width="20" height="20" viewBox="0 0 20 20" fill="none" xmlns="http://www.w3.org/2000/svg">
<path d="M10 0C15.5228 0 20 4.47715 20 10C20 15.5228 15.5228 20 10 20C4.47715 20 0 15.5228 0 10C0 4.47715 4.47715 0 10 0ZM11.1306 4.4501H7.64781C7.4269 4.4501 7.24781 4.62919 7.24781 4.8501V10.0126H6.14C5.91909 10.0126 5.74 10.1917 5.74 10.4126V11.0813C5.74 11.3023 5.91909 11.4813 6.14 11.4813H7.24781V12.7459H6.14C5.91909 12.7459 5.74 12.925 5.74 13.1459V13.5959C5.74 13.8168 5.91909 13.9959 6.14 13.9959H7.24781V15.35C7.24781 15.5709 7.4269 15.75 7.64781 15.75H8.59781C8.81873 15.75 8.99781 15.5709 8.99781 15.35V13.9959H11.7697C11.9906 13.9959 12.1697 13.8168 12.1697 13.5959V13.1459C12.1697 12.925 11.9906 12.7459 11.7697 12.7459H8.99781V11.497H11.0759C13.2634 11.497 14.7088 10.2386 14.7088 8.20731C14.7088 6.16824 13.2947 4.4501 11.1306 4.4501ZM10.6384 5.99697C12.1619 5.99697 12.9197 6.77041 12.9197 7.99697C12.9197 9.22354 12.1619 9.99697 10.6384 9.99697H8.99781V5.99697H10.6384Z" fill="#4971D0"/>
</svg>
