<svg width="61" height="55" viewBox="0 0 61 55" fill="none" xmlns="http://www.w3.org/2000/svg">
<path d="M53.334 0.666992H6.66732C5.12022 0.666992 3.63649 1.28157 2.54253 2.37554C1.44857 3.4695 0.833984 4.95323 0.833984 6.50033V41.5003C0.833984 43.0474 1.44857 44.5312 2.54253 45.6251C3.63649 46.7191 5.12022 47.3337 6.66732 47.3337H33.1798C33.0031 46.3715 32.9152 45.3952 32.9173 44.417C32.9173 39.7757 34.7611 35.3245 38.0429 32.0426C41.3248 28.7607 45.776 26.917 50.4173 26.917C53.4931 26.9056 56.5153 27.7216 59.1673 29.2795V6.50033C59.1673 4.95323 58.5527 3.4695 57.4588 2.37554C56.3648 1.28157 54.8811 0.666992 53.334 0.666992ZM53.334 21.0837H6.66732V12.3337H53.334V21.0837ZM60.7423 38.2337L54.5298 44.417L60.7423 50.6003L56.6007 54.742L50.4173 48.5295L44.234 54.742L40.0923 50.6003L46.3048 44.417L40.0923 38.2337L44.234 34.092L50.4173 40.3045L56.6007 34.092L60.7423 38.2337Z" fill="#F6DE89"/>
</svg>
