<svg width="61" height="54" viewBox="0 0 61 54" fill="none" xmlns="http://www.w3.org/2000/svg">
<path d="M53.333 0.666992H6.66634C5.11925 0.666992 3.63551 1.28157 2.54155 2.37554C1.44759 3.4695 0.833008 4.95323 0.833008 6.50033V41.5003C0.833008 43.0474 1.44759 44.5312 2.54155 45.6251C3.63551 46.7191 5.11925 47.3337 6.66634 47.3337H33.1788C33.0038 46.3712 32.9163 45.4087 32.9163 44.417C32.9163 34.7628 40.7622 26.917 50.4163 26.917C53.508 26.917 56.5122 27.7337 59.1663 29.2795V6.50033C59.1663 3.26283 56.5705 0.666992 53.333 0.666992ZM53.333 21.0837H6.66634V12.3337H53.333V21.0837ZM46.7705 53.167L38.7497 44.417L42.133 41.0337L46.7705 45.6712L57.2413 35.2003L60.6247 39.3128L46.7705 53.167Z" fill="#68AB54"/>
</svg>
