<svg width="70" height="70" viewBox="0 0 70 70" fill="none" xmlns="http://www.w3.org/2000/svg">
<path d="M34.9999 0C16.0265 0 0 16.0265 0 34.9999C0 53.9734 16.0265 69.9998 34.9999 69.9998C53.9734 69.9998 69.9998 53.9734 69.9998 34.9999C69.9998 16.0265 53.9734 0 34.9999 0ZM34.9999 17.5C41.0444 17.5 45.4999 21.952 45.4999 27.9999C45.4999 34.0479 41.0444 38.4999 34.9999 38.4999C28.9589 38.4999 24.4999 34.0479 24.4999 27.9999C24.4999 21.952 28.9589 17.5 34.9999 17.5ZM17.129 51.7019C20.2685 47.0819 25.5044 44.0019 31.4999 44.0019H38.4999C44.4989 44.0019 49.7314 47.0819 52.8709 51.7019C48.3979 56.4899 42.0524 59.4999 34.9999 59.4999C27.9474 59.4999 21.602 56.4899 17.129 51.7019Z" fill="#447AF8"/>
</svg>
