<svg width="62" height="54" viewBox="0 0 62 54" fill="none" xmlns="http://www.w3.org/2000/svg">
<path d="M61.3308 50.5156L32.8933 1.29688C32.4695 0.56543 31.7381 0.203125 30.9998 0.203125C30.2615 0.203125 29.5232 0.56543 29.1062 1.29688L0.668724 50.5156C-0.172096 51.9785 0.880638 53.7969 2.56228 53.7969H59.4373C61.1189 53.7969 62.1717 51.9785 61.3308 50.5156ZM28.8123 20.4375C28.8123 20.1367 29.0584 19.8906 29.3592 19.8906H32.6404C32.9412 19.8906 33.1873 20.1367 33.1873 20.4375V33.0156C33.1873 33.3164 32.9412 33.5625 32.6404 33.5625H29.3592C29.0584 33.5625 28.8123 33.3164 28.8123 33.0156V20.4375ZM30.9998 44.5C30.1411 44.4825 29.3236 44.1291 28.7225 43.5156C28.1215 42.9022 27.7848 42.0776 27.7848 41.2188C27.7848 40.3599 28.1215 39.5353 28.7225 38.9219C29.3236 38.3084 30.1411 37.955 30.9998 37.9375C31.8584 37.955 32.676 38.3084 33.277 38.9219C33.8781 39.5353 34.2147 40.3599 34.2147 41.2188C34.2147 42.0776 33.8781 42.9022 33.277 43.5156C32.676 44.1291 31.8584 44.4825 30.9998 44.5Z" fill="#F7DE89"/>
</svg>
