<svg width="70" height="70" viewBox="0 0 70 70" fill="none" xmlns="http://www.w3.org/2000/svg">
<path d="M35 0C15.7012 0 0 15.7012 0 35C0 54.2988 15.7012 70 35 70C54.2988 70 70 54.2988 70 35C70 15.7012 54.2988 0 35 0ZM48.1629 44.355C48.944 45.1361 48.944 46.4024 48.163 47.1834L47.1834 48.163C46.4024 48.944 45.1361 48.944 44.355 48.163L36.4142 40.2221C35.6332 39.4411 34.3668 39.4411 33.5858 40.2221L25.645 48.1629C24.8639 48.944 23.5976 48.944 22.8166 48.163L21.837 47.1834C21.056 46.4024 21.056 45.1361 21.837 44.355L29.7779 36.4142C30.5589 35.6332 30.5589 34.3668 29.7779 33.5858L21.8371 25.645C21.056 24.8639 21.056 23.5976 21.837 22.8166L22.8166 21.837C23.5976 21.056 24.8639 21.056 25.645 21.837L33.5858 29.7779C34.3668 30.5589 35.6332 30.5589 36.4142 29.7779L44.355 21.8371C45.1361 21.056 46.4024 21.056 47.1834 21.837L48.163 22.8166C48.944 23.5976 48.944 24.8639 48.163 25.645L40.2221 33.5858C39.4411 34.3668 39.4411 35.6332 40.2221 36.4142L48.1629 44.355Z" fill="#FF7474"/>
</svg>
