<svg width="146" height="175" viewBox="0 0 146 175" fill="none" xmlns="http://www.w3.org/2000/svg">
<path d="M139.852 10.6943H93.7476C93.0407 10.6943 92.4668 11.2807 92.4668 12.0031V19.8557C92.4668 33.5663 103.384 44.7221 116.8 44.7221C130.216 44.7221 141.133 33.5663 141.133 19.8557V12.0031C141.133 11.2807 140.56 10.6943 139.852 10.6943ZM136.267 19.8557C136.267 32.124 126.534 39.861 116.8 39.861C107.067 39.861 97.3333 32.124 97.3333 19.8557V13.3119H136.267V19.8557Z" fill="#4D5664"/>
<path d="M116.799 17.5C111.969 17.5 108.039 21.4258 108.039 26.25C108.039 31.0742 111.969 35 116.799 35C121.629 35 125.559 31.0742 125.559 26.25C125.559 21.4258 121.629 17.5 116.799 17.5ZM116.799 31.1111C113.879 31.1111 111.932 29.1667 111.932 26.25C111.932 23.3333 113.879 21.3889 116.799 21.3889C119.719 21.3889 121.666 23.3333 121.666 26.25C121.666 29.1667 119.719 31.1111 116.799 31.1111Z" fill="#4D5664"/>
<path d="M146 0H87.5996C87.5996 0.486111 87.5997 0.609819 87.5997 1.36115V9.52779C87.5997 11.7792 89.0596 13.6111 91.4085 13.6111H142.191C144.73 13.6111 146 11.4874 146 9.23611V1.36115C146 0.609819 146 0.486111 146 0ZM143.46 9.23611C143.46 9.98744 142.805 10.5972 142.106 10.5972H91.4929C90.7947 10.5972 90.1388 9.98744 90.1388 9.23611V2.72217H143.46V9.23611Z" fill="#4D5664"/>
<path d="M89.5469 1.94434H144.053V11.6666H89.5469V1.94434Z" fill="#4D5664"/>
<path d="M129.94 20.4167C130.747 20.4167 131.4 19.7637 131.4 18.9583C131.4 18.1529 130.747 17.5 129.94 17.5C129.135 17.5 128.48 18.1529 128.48 18.9583C128.48 19.7637 129.135 20.4167 129.94 20.4167Z" fill="#4D5664"/>
<path d="M58.5364 67.082C56.9445 67.082 55.6523 68.3741 55.6523 69.9684V73.2594C55.6523 74.8536 56.9445 76.1457 58.5364 76.1457C60.1294 76.1457 61.4204 74.8536 61.4204 73.2594V69.9684C61.4204 68.3741 60.1294 67.082 58.5364 67.082Z" fill="#4D5664"/>
<path d="M70.0812 67.082C68.4883 67.082 67.1973 68.3741 67.1973 69.9684V73.2594C67.1973 74.8536 68.4883 76.1457 70.0812 76.1457C71.6731 76.1457 72.9652 74.8536 72.9652 73.2594V69.9684C72.9652 68.3741 71.6731 67.082 70.0812 67.082Z" fill="#4D5664"/>
<path d="M133.383 89.3912H129.994V80.0941C129.994 78.5011 128.702 77.2079 127.11 77.2079H108.665C107.073 77.2079 105.781 78.5011 105.781 80.0941V89.3912H96.4236V75.4231C96.4236 73.8289 95.1314 72.5369 93.5396 72.5369H85.7482V64.1362C85.7482 63.4857 85.5285 62.8543 85.1264 62.3447L67.2952 39.7843V30.1085C67.2952 28.5143 66.003 27.2222 64.4112 27.2222C62.8183 27.2222 61.5271 28.5143 61.5271 30.1085V39.7843L43.6948 62.3447C43.2926 62.8543 43.0729 63.4857 43.0729 64.135V72.5369H35.2827C33.6898 72.5369 32.3988 73.8289 32.3988 75.4231V106.116H26.9451V100.97C26.9451 99.3756 25.653 98.0835 24.0611 98.0835C22.4681 98.0835 21.1771 99.3756 21.1771 100.97V106.116H15.6907V90.7621C15.6907 89.168 14.3986 87.8759 12.8067 87.8759C11.2138 87.8759 9.92274 89.168 9.92274 90.7621V106.116H5.88854C4.29558 106.116 3.00454 107.408 3.00454 109.003V117.615H2.884C1.29104 117.615 0 118.907 0 120.501V172.113C0 173.708 0.000118815 173.542 0.000114986 175H133.312C133.312 173.542 133.312 173.708 133.312 172.113V95.1638H133.383C134.976 95.1638 136.267 93.8717 136.267 92.2774C136.267 90.6844 134.976 89.3912 133.383 89.3912ZM111.549 82.9805H124.226V89.3912H111.549V82.9805ZM8.77254 111.888H32.3988V117.615H8.77254V111.888ZM5.76799 123.388H32.3988V169.228H5.76799V123.388ZM61.3548 169.228V89.5907H67.2197V112.189C67.2197 113.781 68.5119 115.075 70.1037 115.075C71.6966 115.075 72.9877 113.781 72.9877 112.189V86.7045C72.9877 85.1102 71.6966 83.8181 70.1037 83.8181H58.4709C56.879 83.8181 55.5868 85.1102 55.5868 86.7045V169.228H38.1668V78.3094H45.957C47.55 78.3094 48.841 77.0173 48.841 75.4231V65.1384L64.4112 45.4396L79.9803 65.1384V75.4231C79.9803 77.0173 81.2713 78.3094 82.8642 78.3094H90.6556V169.228H72.9877V138.165C72.9877 136.571 71.6966 135.279 70.1037 135.279C68.5119 135.279 67.2197 136.571 67.2197 138.165V169.228H61.3548ZM127.544 169.228H121.039V107.616C121.039 106.023 119.746 104.731 118.155 104.731C116.562 104.731 115.271 106.023 115.271 107.616V169.228H108.788V107.616C108.788 106.023 107.498 104.731 105.905 104.731C104.313 104.731 103.021 106.023 103.021 107.616V169.228H96.4236V95.1638H127.544V169.228Z" fill="#4D5664"/>
<path d="M13.9426 127.854C12.3496 127.854 11.0586 129.146 11.0586 130.741V134.02C11.0586 135.613 12.3496 136.905 13.9426 136.905C15.5355 136.905 16.8267 135.613 16.8267 134.02V130.741C16.8267 129.146 15.5355 127.854 13.9426 127.854Z" fill="#4D5664"/>
<path d="M24.0617 127.854C22.4688 127.854 21.1777 129.146 21.1777 130.741V134.02C21.1777 135.613 22.4688 136.905 24.0617 136.905C25.6535 136.905 26.9457 135.613 26.9457 134.02V130.741C26.9457 129.146 25.6535 127.854 24.0617 127.854Z" fill="#4D5664"/>
<path d="M13.9426 141.935C12.3496 141.935 11.0586 143.228 11.0586 144.82V148.1C11.0586 149.693 12.3496 150.986 13.9426 150.986C15.5355 150.986 16.8267 149.693 16.8267 148.1V144.82C16.8267 143.228 15.5355 141.935 13.9426 141.935Z" fill="#4D5664"/>
<path d="M24.0617 141.935C22.4688 141.935 21.1777 143.228 21.1777 144.82V148.1C21.1777 149.693 22.4688 150.986 24.0617 150.986C25.6535 150.986 26.9457 149.693 26.9457 148.1V144.82C26.9457 143.228 25.6535 141.935 24.0617 141.935Z" fill="#4D5664"/>
<path d="M13.9426 156.016C12.3496 156.016 11.0586 157.309 11.0586 158.901V162.181C11.0586 163.774 12.3496 165.068 13.9426 165.068C15.5355 165.068 16.8267 163.774 16.8267 162.181V158.901C16.8267 157.308 15.5355 156.016 13.9426 156.016Z" fill="#4D5664"/>
<path d="M24.0617 156.016C22.4688 156.016 21.1777 157.309 21.1777 158.901V162.181C21.1777 163.774 22.4688 165.068 24.0617 165.068C25.6535 165.068 26.9457 163.774 26.9457 162.181V158.901C26.9457 157.308 25.6535 156.016 24.0617 156.016Z" fill="#4D5664"/>
<path d="M46.7395 87.8755C45.1465 87.8755 43.8555 89.1676 43.8555 90.7618V94.8916C43.8555 96.4859 45.1465 97.7783 46.7395 97.7783C48.3324 97.7783 49.6234 96.4859 49.6234 94.8916V90.7618C49.6234 89.1676 48.3324 87.8755 46.7395 87.8755Z" fill="#4D5664"/>
<path d="M81.8215 97.7783C83.4133 97.7783 84.7055 96.4859 84.7055 94.8916V90.7618C84.7055 89.1676 83.4133 87.8755 81.8215 87.8755C80.2285 87.8755 78.9375 89.1676 78.9375 90.7618V94.8916C78.9375 96.4859 80.2285 97.7783 81.8215 97.7783Z" fill="#4D5664"/>
<path d="M46.7395 104.05C45.1465 104.05 43.8555 105.342 43.8555 106.937V111.067C43.8555 112.661 45.1465 113.953 46.7395 113.953C48.3324 113.953 49.6234 112.661 49.6234 111.067V106.937C49.6234 105.342 48.3324 104.05 46.7395 104.05Z" fill="#4D5664"/>
<path d="M81.8215 113.953C83.4133 113.953 84.7055 112.661 84.7055 111.067V106.937C84.7055 105.342 83.4133 104.05 81.8215 104.05C80.2285 104.05 78.9375 105.342 78.9375 106.937V111.067C78.9375 112.661 80.2285 113.953 81.8215 113.953Z" fill="#4D5664"/>
<path d="M46.7395 120.225C45.1465 120.225 43.8555 121.517 43.8555 123.112V127.242C43.8555 128.835 45.1465 130.127 46.7395 130.127C48.3324 130.127 49.6234 128.835 49.6234 127.242V123.112C49.6234 121.517 48.3324 120.225 46.7395 120.225Z" fill="#4D5664"/>
<path d="M81.8215 130.127C83.4133 130.127 84.7055 128.835 84.7055 127.242V123.112C84.7055 121.517 83.4133 120.225 81.8215 120.225C80.2285 120.225 78.9375 121.517 78.9375 123.112V127.242C78.9375 128.835 80.2285 130.127 81.8215 130.127Z" fill="#4D5664"/>
<path d="M46.7395 136.4C45.1465 136.4 43.8555 137.692 43.8555 139.286V143.416C43.8555 145.01 45.1465 146.302 46.7395 146.302C48.3324 146.302 49.6234 145.01 49.6234 143.416V139.286C49.6234 137.692 48.3324 136.4 46.7395 136.4Z" fill="#4D5664"/>
<path d="M81.8215 146.302C83.4133 146.302 84.7055 145.01 84.7055 143.416V139.286C84.7055 137.692 83.4133 136.4 81.8215 136.4C80.2285 136.4 78.9375 137.692 78.9375 139.286V143.416C78.9375 145.01 80.2285 146.302 81.8215 146.302Z" fill="#4D5664"/>
<path d="M46.7395 152.574C45.1465 152.574 43.8555 153.866 43.8555 155.46V159.59C43.8555 161.185 45.1465 162.477 46.7395 162.477C48.3324 162.477 49.6234 161.185 49.6234 159.59V155.46C49.6234 153.866 48.3324 152.574 46.7395 152.574Z" fill="#4D5664"/>
<path d="M81.8215 162.477C83.4133 162.477 84.7055 161.185 84.7055 159.59V155.46C84.7055 153.866 83.4133 152.574 81.8215 152.574C80.2285 152.574 78.9375 153.866 78.9375 155.46V159.59C78.9375 161.185 80.2285 162.477 81.8215 162.477Z" fill="#4D5664"/>
<path d="M67.4422 126.64C67.8974 127.752 69.0453 128.482 70.2462 128.419C71.4336 128.357 72.4847 127.552 72.8497 126.419C73.2193 125.269 72.8137 123.984 71.8595 123.247C70.8929 122.499 69.5185 122.462 68.5035 123.136C67.3724 123.886 66.9206 125.388 67.4422 126.64Z" fill="#4D5664"/>
</svg>
