<svg width="50" height="50" viewBox="0 0 50 50" fill="none" xmlns="http://www.w3.org/2000/svg">
<path d="M25 50C38.8071 50 50 38.8071 50 25C50 11.1929 38.8071 0 25 0C11.1929 0 0 11.1929 0 25C0 38.8071 11.1929 50 25 50Z" fill="#1EA3F8"/>
<path d="M25 50C38.8071 50 50 38.8071 50 25C50 11.1929 38.8071 0 25 0C11.1929 0 0 11.1929 0 25C0 38.8071 11.1929 50 25 50Z" fill="url(#paint0_linear)"/>
<path d="M31.6284 35H18.6335V32.4218L24.7664 25.8853C25.6084 24.9653 26.229 24.1623 26.6284 23.4765C27.0364 22.7908 27.2404 22.1398 27.2404 21.5235C27.2404 20.6815 27.0275 20.0217 26.6022 19.5443C26.1769 19.0582 25.5692 18.8152 24.7794 18.8152C23.9287 18.8152 23.2559 19.1102 22.761 19.7005C22.275 20.2822 22.032 21.0503 22.032 22.0052H18.2559C18.2559 20.8507 18.5294 19.796 19.0762 18.8412C19.6317 17.8863 20.413 17.1398 21.42 16.6016C22.4269 16.0547 23.5684 15.7812 24.8444 15.7812C26.7975 15.7812 28.3124 16.25 29.3887 17.1875C30.4739 18.125 31.0164 19.4488 31.0164 21.1588C31.0164 22.0963 30.7732 23.0512 30.2872 24.0235C29.801 24.9957 28.9677 26.1285 27.7872 27.4218L23.4772 31.9662H31.6284V35Z" fill="white"/>
<defs>
<linearGradient id="paint0_linear" x1="25" y1="0" x2="25" y2="50" gradientUnits="userSpaceOnUse">
<stop stop-color="#4971D0"/>
<stop offset="1" stop-color="#245ADB"/>
</linearGradient>
</defs>
</svg>
