<svg width="50" height="50" viewBox="0 0 50 50" fill="none" xmlns="http://www.w3.org/2000/svg">
<path d="M25 50C38.8071 50 50 38.8071 50 25C50 11.1929 38.8071 0 25 0C11.1929 0 0 11.1929 0 25C0 38.8071 11.1929 50 25 50Z" fill="#1EA3F8"/>
<path d="M25 50C38.8071 50 50 38.8071 50 25C50 11.1929 38.8071 0 25 0C11.1929 0 0 11.1929 0 25C0 38.8071 11.1929 50 25 50Z" fill="url(#paint0_linear)"/>
<path d="M22.4617 23.8542H24.4669C25.4217 23.8542 26.1292 23.6155 26.5892 23.138C27.0494 22.6607 27.2794 22.0268 27.2794 21.237C27.2794 20.4732 27.0494 19.8785 26.5892 19.4532C26.1379 19.0278 25.5129 18.8152 24.7142 18.8152C23.9937 18.8152 23.3906 19.0148 22.9044 19.414C22.4182 19.8047 22.1752 20.3168 22.1752 20.9505H18.4122C18.4122 19.961 18.6769 19.0755 19.2064 18.2943C19.7447 17.5043 20.4912 16.888 21.4461 16.4453C22.4096 16.0026 23.4686 15.7812 24.6231 15.7812C26.6284 15.7812 28.1996 16.263 29.3367 17.2265C30.4739 18.1815 31.0424 19.5008 31.0424 21.1848C31.0424 22.053 30.7776 22.8515 30.2481 23.5807C29.7186 24.3098 29.0242 24.8698 28.1647 25.2603C29.2326 25.6423 30.0267 26.2153 30.5476 26.9792C31.0771 27.743 31.3419 28.6458 31.3419 29.6875C31.3419 31.3715 30.7256 32.7213 29.4929 33.737C28.2689 34.7527 26.6457 35.2603 24.6231 35.2603C22.7307 35.2603 21.1812 34.7613 19.9747 33.763C18.7767 32.7648 18.1777 31.4453 18.1777 29.8047H21.9409C21.9409 30.5165 22.2056 31.0982 22.7351 31.5495C23.2732 32.0008 23.9331 32.2265 24.7142 32.2265C25.6084 32.2265 26.3072 31.9922 26.8106 31.5235C27.3227 31.046 27.5789 30.4167 27.5789 29.6353C27.5789 27.743 26.5372 26.7968 24.4539 26.7968H22.4617V23.8542Z" fill="white"/>
<defs>
<linearGradient id="paint0_linear" x1="25" y1="0" x2="25" y2="50" gradientUnits="userSpaceOnUse">
<stop stop-color="#4971D0"/>
<stop offset="1" stop-color="#245ADB"/>
</linearGradient>
</defs>
</svg>
