<svg width="34" height="34" viewBox="0 0 34 34" fill="none" xmlns="http://www.w3.org/2000/svg">
<path d="M16.9997 0.333334C26.2044 0.333334 33.6663 7.79525 33.6663 17C33.6663 26.2047 26.2044 33.6667 16.9997 33.6667C7.79493 33.6667 0.333008 26.2047 0.333008 17C0.333008 7.79525 7.79493 0.333334 16.9997 0.333334ZM18.8841 7.75017H13.0794C12.7112 7.75017 12.4127 8.04864 12.4127 8.41683V17.021H10.5663C10.1982 17.021 9.89968 17.3195 9.89968 17.6877V18.8022C9.89968 19.1704 10.1982 19.4689 10.5663 19.4689H12.4127V21.5765H10.5663C10.1982 21.5765 9.89968 21.8749 9.89968 22.2431V22.9931C9.89968 23.3613 10.1982 23.6598 10.5663 23.6598H12.4127V25.9167C12.4127 26.2849 12.7112 26.5833 13.0794 26.5833H14.6627C15.0309 26.5833 15.3294 26.2849 15.3294 25.9167V23.6598H19.9492C20.3173 23.6598 20.6158 23.3613 20.6158 22.9931V22.2431C20.6158 21.8749 20.3173 21.5765 19.9492 21.5765H15.3294V19.495H18.7929C22.4387 19.495 24.8476 17.3976 24.8476 14.0122C24.8476 10.6137 22.4908 7.75017 18.8841 7.75017ZM18.0637 10.3283C20.6028 10.3283 21.8658 11.6174 21.8658 13.6616C21.8658 15.7059 20.6028 16.995 18.0637 16.995H15.3294V10.3283H18.0637Z" fill="#99A2AD"/>
</svg>
