<svg width="57" height="39" viewBox="0 0 57 39" fill="none" xmlns="http://www.w3.org/2000/svg">
<path d="M19.3333 33.375V35.7292C19.3333 37.0293 20.3873 38.0833 21.6875 38.0833H54.6458C55.946 38.0833 57 37.0293 57 35.7292V33.375C57 25.1354 44.4523 22.7812 38.1667 22.7812C31.881 22.7812 19.3333 25.1354 19.3333 33.375ZM18.8314 11.1259C19.7428 10.1986 21.2333 10.1857 22.1606 11.097C23.0879 12.0084 23.1008 13.4989 22.1894 14.4262L10.6207 26.197C9.69984 27.134 8.1903 27.136 7.267 26.2014L1.17947 20.0397C0.265695 19.1148 0.274721 17.6242 1.19963 16.7105C2.12454 15.7967 3.61509 15.8057 4.52886 16.7306L8.93733 21.1928L18.8314 11.1259ZM38.1667 0.416656C43.3694 0.416656 47.5833 4.63061 47.5833 9.83332C47.5833 15.036 43.3694 19.25 38.1667 19.25C32.964 19.25 28.75 15.036 28.75 9.83332C28.75 4.63061 32.964 0.416656 38.1667 0.416656Z" fill="#99A2AD"/>
</svg>
