<svg width="85" height="26" viewBox="0 0 85 26" fill="none" xmlns="http://www.w3.org/2000/svg">
<g opacity="0.2">
<path d="M30.4144 13.7003H21.8912C21.8117 13.7003 21.7421 13.6557 21.7123 13.5857L18.362 5.6501C18.2891 5.47502 18.1101 5.36043 17.9113 5.36043H16.9702C16.7747 5.36043 16.5957 5.47502 16.5228 5.6501L11.2571 17.9403C11.1246 18.2458 11.3598 18.5833 11.7045 18.5833H13.6563C13.8552 18.5833 14.0341 18.4655 14.107 18.2872L14.8493 16.4633C14.9222 16.285 15.1012 16.1672 15.3 16.1672H19.4953C19.6942 16.1672 19.8731 16.285 19.946 16.4633L20.6883 18.2872C20.7612 18.4655 20.9402 18.5833 21.139 18.5833H23.0942C23.4388 18.5833 23.6741 18.249 23.5448 17.9403L22.8953 16.4028C22.8423 16.2818 22.9384 16.1481 23.0743 16.1481H26.693C27.0376 16.1481 27.2729 16.4824 27.1437 16.788C25.5828 20.4772 21.8084 23.0842 17.4109 23.0842C11.668 23.0842 7.57875 18.631 7.57875 13.1305C7.57875 7.40083 11.9497 3.5524 17.7754 3.5524C21.6758 3.5524 24.5489 5.68193 25.4768 6.57958C25.6657 6.7642 25.9739 6.7642 26.1628 6.57958L27.6474 5.15353C27.8263 4.98164 27.8396 4.7047 27.6739 4.52008C27.4519 4.27498 27.2199 4.03306 26.9813 3.80069C26.7261 3.55558 26.461 3.32003 26.186 3.09403C25.1355 2.23139 23.9591 1.53428 22.6799 1.01543C21.0197 0.343781 19.2468 0 17.4175 0C15.5883 0 13.8187 0.343781 12.1519 1.02179C10.5413 1.67752 9.09318 2.61337 7.85049 3.80705C7.67817 3.97258 7.51248 4.14128 7.3501 4.31317L5.43801 2.47649C5.60702 2.23457 5.70643 1.94491 5.70643 1.62977C5.70643 0.792605 4.99727 0.114594 4.12905 0.114594C3.26082 0.114594 2.54834 0.795788 2.54834 1.63296C2.54834 2.47013 3.2575 3.14814 4.12573 3.14814C4.45049 3.14814 4.75536 3.05264 5.00721 2.8903L6.95244 4.75881C6.1306 5.72013 5.45789 6.78648 4.95088 7.94197C4.24503 9.54628 3.88713 11.2493 3.88713 13.0032C3.88713 13.2578 3.89376 13.5093 3.91033 13.7608H2.37934C2.23353 13.2738 1.76628 12.9141 1.21287 12.9141C0.54347 12.9141 0 13.4361 0 14.0791C0 14.7221 0.54347 15.2441 1.21287 15.2441C1.78947 15.2441 2.26998 14.859 2.39591 14.3401H3.95341C4.08928 15.6229 4.42066 16.8675 4.94756 18.0612C5.63021 19.6082 6.60448 20.9993 7.84717 22.1929C9.08986 23.3866 10.538 24.3225 12.1485 24.9782C13.8187 25.6562 15.5916 26 17.4175 26C19.2435 26 21.0164 25.6562 22.6865 24.9782C24.2971 24.3225 25.7452 23.3866 26.9879 22.1929C28.2306 20.9993 29.2049 19.6082 29.8875 18.0612C30.1626 17.4373 30.3846 16.8007 30.5536 16.1481C30.7193 15.5115 30.832 14.8653 30.8949 14.2064C30.9214 13.9358 30.6994 13.7003 30.4144 13.7003ZM18.1731 13.6907H16.6322C16.2908 13.6907 16.0556 13.3597 16.1815 13.0509L16.9569 11.1761C17.1193 10.7845 17.6992 10.7845 17.8583 11.1792L18.6238 13.0541C18.753 13.3597 18.5177 13.6907 18.1731 13.6907ZM4.12573 2.56562C3.58889 2.56562 3.15478 2.14863 3.15478 1.63296C3.15478 1.11729 3.5922 0.700294 4.12573 0.700294C4.65926 0.700294 5.09669 1.11729 5.09669 1.63296C5.09669 2.14863 4.66257 2.56562 4.12573 2.56562ZM1.21287 14.6616C0.878168 14.6616 0.606433 14.4006 0.606433 14.0791C0.606433 13.7576 0.878168 13.4966 1.21287 13.4966C1.54756 13.4966 1.8193 13.7576 1.8193 14.0791C1.8193 14.4006 1.54756 14.6616 1.21287 14.6616Z" fill="white"/>
<path d="M30.4144 13.7003H21.8912C21.8117 13.7003 21.7421 13.6557 21.7123 13.5857L18.362 5.6501C18.2891 5.47502 18.1101 5.36043 17.9113 5.36043H16.9702C16.7747 5.36043 16.5957 5.47502 16.5228 5.6501L11.2571 17.9403C11.1246 18.2458 11.3598 18.5833 11.7045 18.5833H13.6563C13.8552 18.5833 14.0341 18.4655 14.107 18.2872L14.8493 16.4633C14.9222 16.285 15.1012 16.1672 15.3 16.1672H19.4953C19.6942 16.1672 19.8731 16.285 19.946 16.4633L20.6883 18.2872C20.7612 18.4655 20.9402 18.5833 21.139 18.5833H23.0942C23.4388 18.5833 23.6741 18.249 23.5448 17.9403L22.8953 16.4028C22.8423 16.2818 22.9384 16.1481 23.0743 16.1481H26.693C27.0376 16.1481 27.2729 16.4824 27.1437 16.788C25.5828 20.4772 21.8084 23.0842 17.4109 23.0842C11.668 23.0842 7.57875 18.631 7.57875 13.1305C7.57875 7.40083 11.9497 3.5524 17.7754 3.5524C21.6758 3.5524 24.5489 5.68193 25.4768 6.57958C25.6657 6.7642 25.9739 6.7642 26.1628 6.57958L27.6474 5.15353C27.8263 4.98164 27.8396 4.7047 27.6739 4.52008C27.4519 4.27498 27.2199 4.03306 26.9813 3.80069C26.7261 3.55558 26.461 3.32003 26.186 3.09403C25.1355 2.23139 23.9591 1.53428 22.6799 1.01543C21.0197 0.343781 19.2468 0 17.4175 0C15.5883 0 13.8187 0.343781 12.1519 1.02179C10.5413 1.67752 9.09318 2.61337 7.85049 3.80705C7.67817 3.97258 7.51248 4.14128 7.3501 4.31317L5.43801 2.47649C5.60702 2.23457 5.70643 1.94491 5.70643 1.62977C5.70643 0.792605 4.99727 0.114594 4.12905 0.114594C3.26082 0.114594 2.54834 0.795788 2.54834 1.63296C2.54834 2.47013 3.2575 3.14814 4.12573 3.14814C4.45049 3.14814 4.75536 3.05264 5.00721 2.8903L6.95244 4.75881C6.1306 5.72013 5.45789 6.78648 4.95088 7.94197C4.24503 9.54628 3.88713 11.2493 3.88713 13.0032C3.88713 13.2578 3.89376 13.5093 3.91033 13.7608H2.37934C2.23353 13.2738 1.76628 12.9141 1.21287 12.9141C0.54347 12.9141 0 13.4361 0 14.0791C0 14.7221 0.54347 15.2441 1.21287 15.2441C1.78947 15.2441 2.26998 14.859 2.39591 14.3401H3.95341C4.08928 15.6229 4.42066 16.8675 4.94756 18.0612C5.63021 19.6082 6.60448 20.9993 7.84717 22.1929C9.08986 23.3866 10.538 24.3225 12.1485 24.9782C13.8187 25.6562 15.5916 26 17.4175 26C19.2435 26 21.0164 25.6562 22.6865 24.9782C24.2971 24.3225 25.7452 23.3866 26.9879 22.1929C28.2306 20.9993 29.2049 19.6082 29.8875 18.0612C30.1626 17.4373 30.3846 16.8007 30.5536 16.1481C30.7193 15.5115 30.832 14.8653 30.8949 14.2064C30.9214 13.9358 30.6994 13.7003 30.4144 13.7003ZM18.1731 13.6907H16.6322C16.2908 13.6907 16.0556 13.3597 16.1815 13.0509L16.9569 11.1761C17.1193 10.7845 17.6992 10.7845 17.8583 11.1792L18.6238 13.0541C18.753 13.3597 18.5177 13.6907 18.1731 13.6907ZM4.12573 2.56562C3.58889 2.56562 3.15478 2.14863 3.15478 1.63296C3.15478 1.11729 3.5922 0.700294 4.12573 0.700294C4.65926 0.700294 5.09669 1.11729 5.09669 1.63296C5.09669 2.14863 4.66257 2.56562 4.12573 2.56562ZM1.21287 14.6616C0.878168 14.6616 0.606433 14.4006 0.606433 14.0791C0.606433 13.7576 0.878168 13.4966 1.21287 13.4966C1.54756 13.4966 1.8193 13.7576 1.8193 14.0791C1.8193 14.4006 1.54756 14.6616 1.21287 14.6616Z" fill="#787879"/>
<path d="M34.7489 14.3115H31.3158L36.5086 2.10088H38.361L43.4809 14.3115H40.0478L39.3949 12.618H35.3984L34.7489 14.3115ZM36.4721 9.81048H38.3246L37.3967 7.43903L36.4721 9.81048Z" fill="white"/>
<path d="M34.7489 14.3115H31.3158L36.5086 2.10088H38.361L43.4809 14.3115H40.0478L39.3949 12.618H35.3984L34.7489 14.3115ZM36.4721 9.81048H38.3246L37.3967 7.43903L36.4721 9.81048Z" fill="#787879"/>
<path d="M52.9651 4.02032L50.9669 5.79971C50.2047 5.13761 49.2403 4.78746 48.17 4.78746C46.2811 4.78746 44.7932 6.13075 44.7932 8.22527C44.7932 10.3198 46.2811 11.644 48.17 11.644C48.7864 11.644 49.3696 11.523 49.8766 11.2938V9.61949H48.17V7.3881H52.9651V12.4302C51.7655 13.6685 50.0589 14.4547 48.17 14.4547C44.591 14.4547 41.7047 11.6631 41.7047 8.22527C41.7047 4.78746 44.591 1.99584 48.17 1.99584C50.0589 1.99584 51.7655 2.78208 52.9651 4.02032Z" fill="white"/>
<path d="M52.9651 4.02032L50.9669 5.79971C50.2047 5.13761 49.2403 4.78746 48.17 4.78746C46.2811 4.78746 44.7932 6.13075 44.7932 8.22527C44.7932 10.3198 46.2811 11.644 48.17 11.644C48.7864 11.644 49.3696 11.523 49.8766 11.2938V9.61949H48.17V7.3881H52.9651V12.4302C51.7655 13.6685 50.0589 14.4547 48.17 14.4547C44.591 14.4547 41.7047 11.6631 41.7047 8.22527C41.7047 4.78746 44.591 1.99584 48.17 1.99584C50.0589 1.99584 51.7655 2.78208 52.9651 4.02032Z" fill="#787879"/>
<path d="M56.2326 14.3115H52.7994L57.9955 2.10088H59.848L64.9678 14.3115H61.5347L60.8819 12.618H56.8854L56.2326 14.3115ZM57.9591 9.81048H59.8115L58.8836 7.43903L57.9591 9.81048Z" fill="white"/>
<path d="M56.2326 14.3115H52.7994L57.9955 2.10088H59.848L64.9678 14.3115H61.5347L60.8819 12.618H56.8854L56.2326 14.3115ZM57.9591 9.81048H59.8115L58.8836 7.43903L57.9591 9.81048Z" fill="#787879"/>
<path d="M73.1961 6.79285V9.60039H68.0729V11.5007H73.6832V14.3083H64.9844V2.10088H73.6832L74.3029 4.89251H68.0729V6.79285H73.1961Z" fill="white"/>
<path d="M73.1961 6.79285V9.60039H68.0729V11.5007H73.6832V14.3083H64.9844V2.10088H73.6832L74.3029 4.89251H68.0729V6.79285H73.1961Z" fill="#787879"/>
<path d="M78.0277 14.3115L72.815 2.10088H76.2481L78.9191 8.88737L81.5702 2.10088H85L79.8602 14.3115H78.0277Z" fill="white"/>
<path d="M78.0277 14.3115L72.815 2.10088H76.2481L78.9191 8.88737L81.5702 2.10088H85L79.8602 14.3115H78.0277Z" fill="#787879"/>
<path d="M33.9867 15.763C36.376 15.763 38.308 17.4182 38.308 19.8438C38.308 22.2789 36.3793 23.9246 33.9867 23.9246H31.3158V15.763H33.9867ZM33.9867 23.0747C35.869 23.0747 37.3602 21.8746 37.3602 19.847C37.3602 17.8288 35.869 16.6192 33.9867 16.6192H32.2635V23.0779H33.9867V23.0747Z" fill="white"/>
<path d="M33.9867 15.763C36.376 15.763 38.308 17.4182 38.308 19.8438C38.308 22.2789 36.3793 23.9246 33.9867 23.9246H31.3158V15.763H33.9867ZM33.9867 23.0747C35.869 23.0747 37.3602 21.8746 37.3602 19.847C37.3602 17.8288 35.869 16.6192 33.9867 16.6192H32.2635V23.0779H33.9867V23.0747Z" fill="#787879"/>
<path d="M43.9713 23.0747V23.9246H41.0353V23.0747H42.0294V16.6161H41.0353V15.7662H43.9713V16.6161H42.9772V23.0747H43.9713Z" fill="white"/>
<path d="M43.9713 23.0747V23.9246H41.0353V23.0747H42.0294V16.6161H41.0353V15.7662H43.9713V16.6161H42.9772V23.0747H43.9713Z" fill="#787879"/>
<path d="M54.0819 17.0458L53.4622 17.5933C52.806 16.928 51.8981 16.5333 50.8774 16.5333C48.9951 16.5333 47.5039 17.9562 47.5039 19.8438C47.5039 21.7441 48.9951 23.1543 50.8774 23.1543C51.7522 23.1543 52.5409 22.8519 53.1341 22.3266V20.3563H50.8045V19.6464H54.0819V22.6641C53.2932 23.4917 52.1532 24.0042 50.8774 24.0042C48.4881 24.0042 46.5561 22.1516 46.5561 19.8438C46.5561 17.5487 48.4848 15.6834 50.8774 15.6834C52.1499 15.6834 53.2932 16.2086 54.0819 17.0458Z" fill="white"/>
<path d="M54.0819 17.0458L53.4622 17.5933C52.806 16.928 51.8981 16.5333 50.8774 16.5333C48.9951 16.5333 47.5039 17.9562 47.5039 19.8438C47.5039 21.7441 48.9951 23.1543 50.8774 23.1543C51.7522 23.1543 52.5409 22.8519 53.1341 22.3266V20.3563H50.8045V19.6464H54.0819V22.6641C53.2932 23.4917 52.1532 24.0042 50.8774 24.0042C48.4881 24.0042 46.5561 22.1516 46.5561 19.8438C46.5561 17.5487 48.4848 15.6834 50.8774 15.6834C52.1499 15.6834 53.2932 16.2086 54.0819 17.0458Z" fill="#787879"/>
<path d="M60.2456 23.0747V23.9246H57.3096V23.0747H58.3037V16.6161H57.3096V15.7662H60.2456V16.6161H59.2515V23.0747H60.2456Z" fill="white"/>
<path d="M60.2456 23.0747V23.9246H57.3096V23.0747H58.3037V16.6161H57.3096V15.7662H60.2456V16.6161H59.2515V23.0747H60.2456Z" fill="#787879"/>
<path d="M66.3596 23.9246H65.4152V16.6161H62.7807V15.7662H68.9809V16.6161H66.3596V23.9246Z" fill="white"/>
<path d="M66.3596 23.9246H65.4152V16.6161H62.7807V15.7662H68.9809V16.6161H66.3596V23.9246Z" fill="#787879"/>
<path d="M70.7405 23.9246H69.6967L73.216 15.7662H73.7495L77.2556 23.9246H76.2117L75.2905 21.7569H71.6618L70.7405 23.9246ZM72.0031 20.9038H74.9657L73.4844 17.4437L72.0031 20.9038Z" fill="white"/>
<path d="M70.7405 23.9246H69.6967L73.216 15.7662H73.7495L77.2556 23.9246H76.2117L75.2905 21.7569H71.6618L70.7405 23.9246ZM72.0031 20.9038H74.9657L73.4844 17.4437L72.0031 20.9038Z" fill="#787879"/>
<path d="M79.7078 23.9246V15.763H80.6556V23.0715H85V23.9214H79.7078V23.9246Z" fill="white"/>
<path d="M79.7078 23.9246V15.763H80.6556V23.0715H85V23.9214H79.7078V23.9246Z" fill="#787879"/>
</g>
</svg>
