<svg width="35" height="17" viewBox="0 0 35 17" fill="none" xmlns="http://www.w3.org/2000/svg">
<path d="M1.76752 4.65966C1.90008 4.65966 2.06211 4.67445 2.25359 4.70404C2.44507 4.73362 2.62919 4.778 2.80594 4.83717C2.98269 4.89634 3.12998 4.9777 3.24782 5.08125C3.36565 5.1848 3.42457 5.30314 3.42457 5.43627C3.42457 5.85046 3.41721 6.24246 3.40248 6.61228C3.38775 6.9673 3.37302 7.33711 3.35829 7.72172C3.35829 8.10633 3.35092 8.51312 3.33619 8.94211C3.32146 9.37109 3.3141 9.86664 3.3141 10.4288C3.3141 10.9761 3.32146 11.4716 3.33619 11.9154C3.35092 12.3444 3.35829 12.7512 3.35829 13.1358C3.37302 13.5204 3.38775 13.8976 3.40248 14.2674C3.41721 14.6225 3.42457 15.0071 3.42457 15.4213C3.42457 15.5692 3.36565 15.6949 3.24782 15.7985C3.12998 15.8872 2.98269 15.9612 2.80594 16.0204C2.62919 16.0795 2.44507 16.1239 2.25359 16.1535C2.06211 16.1831 1.90008 16.1979 1.76752 16.1979C1.63496 16.1979 1.47293 16.1831 1.28145 16.1535C1.08997 16.1239 0.905854 16.0795 0.729102 16.0204C0.55235 15.9612 0.405057 15.8872 0.287222 15.7985C0.169387 15.6949 0.11047 15.5692 0.11047 15.4213C0.11047 15.0071 0.117835 14.6225 0.132564 14.2674C0.147293 13.8976 0.154658 13.5204 0.154658 13.1358C0.169387 12.7512 0.184117 12.3444 0.198846 11.9154C0.213575 11.4716 0.22094 10.9761 0.22094 10.4288C0.22094 9.86664 0.213575 9.37109 0.198846 8.94211C0.184117 8.51312 0.169387 8.10633 0.154658 7.72172C0.154658 7.33711 0.147293 6.9673 0.132564 6.61228C0.117835 6.24246 0.11047 5.85046 0.11047 5.43627C0.11047 5.30314 0.169387 5.1848 0.287222 5.08125C0.405057 4.9777 0.55235 4.89634 0.729102 4.83717C0.905854 4.778 1.08997 4.73362 1.28145 4.70404C1.47293 4.67445 1.63496 4.65966 1.76752 4.65966ZM0 1.77511C0 1.21299 0.154658 0.77661 0.463974 0.465965C0.77329 0.155322 1.20781 0 1.76752 0C2.32723 0 2.76175 0.155322 3.07107 0.465965C3.38038 0.77661 3.53504 1.21299 3.53504 1.77511C3.53504 2.33723 3.38038 2.77361 3.07107 3.08425C2.76175 3.3949 2.32723 3.55022 1.76752 3.55022C1.20781 3.55022 0.77329 3.3949 0.463974 3.08425C0.154658 2.77361 0 2.33723 0 1.77511Z" fill="#464C59"/>
<path d="M4.74503 5.21438C4.74503 5.08125 4.80395 4.96291 4.92178 4.85936C5.03962 4.75581 5.18691 4.67445 5.36366 4.61528C5.54042 4.55611 5.72453 4.51173 5.91601 4.48215C6.1075 4.45256 6.26952 4.43777 6.40208 4.43777C6.53465 4.43777 6.69667 4.45256 6.88815 4.48215C7.07963 4.51173 7.26375 4.55611 7.4405 4.61528C7.61725 4.67445 7.76455 4.75581 7.88238 4.85936C8.00021 4.96291 8.05913 5.08125 8.05913 5.21438C8.05913 5.5842 8.0444 6.05016 8.01494 6.61228C7.98549 7.1596 7.97076 7.74391 7.97076 8.3652C7.98549 8.97169 8.02967 9.58559 8.10332 10.2069C8.1917 10.8282 8.33162 11.3829 8.52311 11.871C8.72932 12.3592 9.01654 12.7586 9.38477 13.0692C9.75301 13.3799 10.2317 13.5352 10.8209 13.5352C11.4101 13.5352 11.8888 13.3799 12.257 13.0692C12.6252 12.7586 12.9051 12.3592 13.0966 11.871C13.3028 11.3829 13.4427 10.8282 13.5163 10.2069C13.6047 9.58559 13.6489 8.97169 13.6489 8.3652C13.6636 7.74391 13.6563 7.1596 13.6268 6.61228C13.5974 6.05016 13.5826 5.5842 13.5826 5.21438C13.5826 5.08125 13.6416 4.96291 13.7594 4.85936C13.8772 4.75581 14.0245 4.67445 14.2013 4.61528C14.378 4.55611 14.5621 4.51173 14.7536 4.48215C14.9451 4.45256 15.1071 4.43777 15.2397 4.43777C15.3722 4.43777 15.5343 4.45256 15.7257 4.48215C15.9172 4.51173 16.1013 4.55611 16.2781 4.61528C16.4549 4.67445 16.6021 4.75581 16.72 4.85936C16.8378 4.96291 16.8967 5.08125 16.8967 5.21438C16.8967 5.86525 16.882 6.59009 16.8525 7.38889C16.8231 8.17289 16.7421 8.97169 16.6095 9.78528C16.4917 10.5989 16.3076 11.3903 16.0572 12.1595C15.8068 12.9287 15.4533 13.6166 14.9966 14.2231C14.5548 14.8148 13.9877 15.2955 13.2954 15.6653C12.6179 16.0204 11.793 16.1979 10.8209 16.1979C9.84875 16.1979 9.01654 16.0204 8.32426 15.6653C7.64671 15.2955 7.07963 14.8148 6.62302 14.2231C6.18114 13.6166 5.835 12.9287 5.5846 12.1595C5.33421 11.3903 5.14272 10.5989 5.01016 9.78528C4.89233 8.97169 4.81868 8.17289 4.78922 7.38889C4.75976 6.59009 4.74503 5.86525 4.74503 5.21438Z" fill="#464C59"/>
<path d="M19.8708 4.65966C20.0034 4.65966 20.1654 4.67445 20.3569 4.70404C20.5483 4.73362 20.7325 4.778 20.9092 4.83717C21.086 4.89634 21.2333 4.9777 21.3511 5.08125C21.4689 5.1848 21.5278 5.30314 21.5278 5.43627C21.5278 5.85046 21.5205 6.24246 21.5057 6.61228C21.491 6.9673 21.4763 7.33711 21.4616 7.72172C21.4616 8.10633 21.4542 8.51312 21.4395 8.94211C21.4247 9.37109 21.4174 9.86664 21.4174 10.4288C21.4174 10.9761 21.4247 11.4716 21.4395 11.9154C21.4542 12.3444 21.4616 12.7512 21.4616 13.1358C21.4763 13.5204 21.491 13.8976 21.5057 14.2674C21.5205 14.6225 21.5278 15.0071 21.5278 15.4213C21.5278 15.5692 21.4689 15.6949 21.3511 15.7985C21.2333 15.8872 21.086 15.9612 20.9092 16.0204C20.7325 16.0795 20.5483 16.1239 20.3569 16.1535C20.1654 16.1831 20.0034 16.1979 19.8708 16.1979C19.7382 16.1979 19.5762 16.1831 19.3847 16.1535C19.1932 16.1239 19.0091 16.0795 18.8324 16.0204C18.6556 15.9612 18.5083 15.8872 18.3905 15.7985C18.2727 15.6949 18.2137 15.5692 18.2137 15.4213C18.2137 15.0071 18.2211 14.6225 18.2358 14.2674C18.2506 13.8976 18.2579 13.5204 18.2579 13.1358C18.2727 12.7512 18.2874 12.3444 18.3021 11.9154C18.3168 11.4716 18.3242 10.9761 18.3242 10.4288C18.3242 9.86664 18.3168 9.37109 18.3021 8.94211C18.2874 8.51312 18.2727 8.10633 18.2579 7.72172C18.2579 7.33711 18.2506 6.9673 18.2358 6.61228C18.2211 6.24246 18.2137 5.85046 18.2137 5.43627C18.2137 5.30314 18.2727 5.1848 18.3905 5.08125C18.5083 4.9777 18.6556 4.89634 18.8324 4.83717C19.0091 4.778 19.1932 4.73362 19.3847 4.70404C19.5762 4.67445 19.7382 4.65966 19.8708 4.65966ZM18.1033 1.77511C18.1033 1.21299 18.2579 0.77661 18.5672 0.465965C18.8766 0.155322 19.3111 0 19.8708 0C20.4305 0 20.865 0.155322 21.1743 0.465965C21.4837 0.77661 21.6383 1.21299 21.6383 1.77511C21.6383 2.33723 21.4837 2.77361 21.1743 3.08425C20.865 3.3949 20.4305 3.55022 19.8708 3.55022C19.3111 3.55022 18.8766 3.3949 18.5672 3.08425C18.2579 2.77361 18.1033 2.33723 18.1033 1.77511Z" fill="#464C59"/>
<path d="M28.9242 4.43777C29.1009 4.43777 29.3071 4.45256 29.5428 4.48215C29.7785 4.51173 30.0141 4.54872 30.2498 4.59309C30.5002 4.62268 30.7432 4.65966 30.9789 4.70404C31.2146 4.73362 31.4134 4.76321 31.5754 4.79279C31.8553 4.83717 31.9952 4.71883 31.9952 4.43777C31.9805 4.11233 31.9584 3.65376 31.9289 3.06206C31.9142 2.45557 31.9068 1.76771 31.9068 0.998499C31.9068 0.865366 31.9584 0.747025 32.0615 0.643476C32.1793 0.539929 32.3119 0.45857 32.4592 0.399399C32.6212 0.340229 32.7906 0.295852 32.9674 0.266267C33.1588 0.236681 33.3209 0.221888 33.4534 0.221888C33.586 0.221888 33.7406 0.236681 33.9174 0.266267C34.1089 0.295852 34.2783 0.340229 34.4256 0.399399C34.5876 0.45857 34.7201 0.539929 34.8232 0.643476C34.9411 0.747025 35 0.865366 35 0.998499C35 1.54582 34.9853 2.24847 34.9558 3.10644C34.9411 3.94962 34.919 4.82238 34.8895 5.72472C34.8601 6.61228 34.8306 7.47764 34.8012 8.32082C34.7864 9.164 34.7791 9.86664 34.7791 10.4288C34.7791 10.9021 34.7864 11.3385 34.8012 11.7379C34.8159 12.1373 34.8306 12.5293 34.8453 12.9139C34.8748 13.2837 34.8969 13.6535 34.9116 14.0234C34.9411 14.3932 34.9632 14.7852 34.9779 15.1994C34.9926 15.4656 34.919 15.6801 34.757 15.8428C34.5949 16.0056 34.3814 16.0721 34.1162 16.0425C33.9395 16.0278 33.7775 16.013 33.6302 15.9982C33.4976 15.9834 33.3282 15.976 33.122 15.976C32.6212 15.976 32.1793 15.9982 31.7964 16.0425C31.4281 16.0869 31.082 16.1387 30.758 16.1979C30.4486 16.257 30.1467 16.3088 29.8521 16.3532C29.5722 16.3976 29.2629 16.4198 28.9242 16.4198C28.0257 16.4198 27.2082 16.2718 26.4717 15.976C25.75 15.6949 25.124 15.2955 24.5937 14.7778C24.0782 14.2452 23.6731 13.6166 23.3786 12.8917C23.0987 12.1521 22.9588 11.3311 22.9588 10.4288C22.9588 9.52641 23.0987 8.71282 23.3786 7.98799C23.6731 7.24836 24.0782 6.61967 24.5937 6.10193C25.124 5.5694 25.75 5.16261 26.4717 4.88155C27.2082 4.5857 28.0257 4.43777 28.9242 4.43777ZM28.9242 13.7571C29.9257 13.7571 30.6917 13.513 31.2219 13.0249C31.7522 12.5219 32.0173 11.6565 32.0173 10.4288C32.0173 9.20098 31.7522 8.34301 31.2219 7.85485C30.6917 7.35191 29.9257 7.10043 28.9242 7.10043C27.9226 7.10043 27.1566 7.35191 26.6264 7.85485C26.0961 8.34301 25.831 9.20098 25.831 10.4288C25.831 11.6565 26.0961 12.5219 26.6264 13.0249C27.1566 13.513 27.9226 13.7571 28.9242 13.7571Z" fill="#464C59"/>
<mask id="mask0" mask-type="alpha" maskUnits="userSpaceOnUse" x="0" y="0" width="35" height="17">
<path d="M1.76752 4.65966C1.90008 4.65966 2.06211 4.67445 2.25359 4.70404C2.44507 4.73362 2.62919 4.778 2.80594 4.83717C2.98269 4.89634 3.12998 4.9777 3.24782 5.08125C3.36565 5.1848 3.42457 5.30314 3.42457 5.43627C3.42457 5.85046 3.41721 6.24246 3.40248 6.61228C3.38775 6.9673 3.37302 7.33711 3.35829 7.72172C3.35829 8.10633 3.35092 8.51312 3.33619 8.94211C3.32146 9.37109 3.3141 9.86664 3.3141 10.4288C3.3141 10.9761 3.32146 11.4716 3.33619 11.9154C3.35092 12.3444 3.35829 12.7512 3.35829 13.1358C3.37302 13.5204 3.38775 13.8976 3.40248 14.2674C3.41721 14.6225 3.42457 15.0071 3.42457 15.4213C3.42457 15.5692 3.36565 15.6949 3.24782 15.7985C3.12998 15.8872 2.98269 15.9612 2.80594 16.0204C2.62919 16.0795 2.44507 16.1239 2.25359 16.1535C2.06211 16.1831 1.90008 16.1979 1.76752 16.1979C1.63496 16.1979 1.47293 16.1831 1.28145 16.1535C1.08997 16.1239 0.905854 16.0795 0.729102 16.0204C0.55235 15.9612 0.405057 15.8872 0.287222 15.7985C0.169387 15.6949 0.11047 15.5692 0.11047 15.4213C0.11047 15.0071 0.117835 14.6225 0.132564 14.2674C0.147293 13.8976 0.154658 13.5204 0.154658 13.1358C0.169387 12.7512 0.184117 12.3444 0.198846 11.9154C0.213575 11.4716 0.22094 10.9761 0.22094 10.4288C0.22094 9.86664 0.213575 9.37109 0.198846 8.94211C0.184117 8.51312 0.169387 8.10633 0.154658 7.72172C0.154658 7.33711 0.147293 6.9673 0.132564 6.61228C0.117835 6.24246 0.11047 5.85046 0.11047 5.43627C0.11047 5.30314 0.169387 5.1848 0.287222 5.08125C0.405057 4.9777 0.55235 4.89634 0.729102 4.83717C0.905854 4.778 1.08997 4.73362 1.28145 4.70404C1.47293 4.67445 1.63496 4.65966 1.76752 4.65966ZM0 1.77511C0 1.21299 0.154658 0.77661 0.463974 0.465965C0.77329 0.155322 1.20781 0 1.76752 0C2.32723 0 2.76175 0.155322 3.07107 0.465965C3.38038 0.77661 3.53504 1.21299 3.53504 1.77511C3.53504 2.33723 3.38038 2.77361 3.07107 3.08425C2.76175 3.3949 2.32723 3.55022 1.76752 3.55022C1.20781 3.55022 0.77329 3.3949 0.463974 3.08425C0.154658 2.77361 0 2.33723 0 1.77511Z" fill="#4971D0"/>
<path d="M4.74503 5.21438C4.74503 5.08125 4.80395 4.96291 4.92178 4.85936C5.03962 4.75581 5.18691 4.67445 5.36366 4.61528C5.54042 4.55611 5.72453 4.51173 5.91601 4.48215C6.1075 4.45256 6.26952 4.43777 6.40208 4.43777C6.53465 4.43777 6.69667 4.45256 6.88815 4.48215C7.07963 4.51173 7.26375 4.55611 7.4405 4.61528C7.61725 4.67445 7.76455 4.75581 7.88238 4.85936C8.00021 4.96291 8.05913 5.08125 8.05913 5.21438C8.05913 5.5842 8.0444 6.05016 8.01494 6.61228C7.98549 7.1596 7.97076 7.74391 7.97076 8.3652C7.98549 8.97169 8.02967 9.58559 8.10332 10.2069C8.1917 10.8282 8.33162 11.3829 8.52311 11.871C8.72932 12.3592 9.01654 12.7586 9.38477 13.0692C9.75301 13.3799 10.2317 13.5352 10.8209 13.5352C11.4101 13.5352 11.8888 13.3799 12.257 13.0692C12.6252 12.7586 12.9051 12.3592 13.0966 11.871C13.3028 11.3829 13.4427 10.8282 13.5163 10.2069C13.6047 9.58559 13.6489 8.97169 13.6489 8.3652C13.6636 7.74391 13.6563 7.1596 13.6268 6.61228C13.5974 6.05016 13.5826 5.5842 13.5826 5.21438C13.5826 5.08125 13.6416 4.96291 13.7594 4.85936C13.8772 4.75581 14.0245 4.67445 14.2013 4.61528C14.378 4.55611 14.5621 4.51173 14.7536 4.48215C14.9451 4.45256 15.1071 4.43777 15.2397 4.43777C15.3722 4.43777 15.5343 4.45256 15.7257 4.48215C15.9172 4.51173 16.1013 4.55611 16.2781 4.61528C16.4549 4.67445 16.6021 4.75581 16.72 4.85936C16.8378 4.96291 16.8967 5.08125 16.8967 5.21438C16.8967 5.86525 16.882 6.59009 16.8525 7.38889C16.8231 8.17289 16.7421 8.97169 16.6095 9.78528C16.4917 10.5989 16.3076 11.3903 16.0572 12.1595C15.8068 12.9287 15.4533 13.6166 14.9966 14.2231C14.5548 14.8148 13.9877 15.2955 13.2954 15.6653C12.6179 16.0204 11.793 16.1979 10.8209 16.1979C9.84875 16.1979 9.01654 16.0204 8.32426 15.6653C7.64671 15.2955 7.07963 14.8148 6.62302 14.2231C6.18114 13.6166 5.835 12.9287 5.5846 12.1595C5.33421 11.3903 5.14272 10.5989 5.01016 9.78528C4.89233 8.97169 4.81868 8.17289 4.78922 7.38889C4.75976 6.59009 4.74503 5.86525 4.74503 5.21438Z" fill="#4971D0"/>
<path d="M19.8708 4.65966C20.0034 4.65966 20.1654 4.67445 20.3569 4.70404C20.5483 4.73362 20.7325 4.778 20.9092 4.83717C21.086 4.89634 21.2333 4.9777 21.3511 5.08125C21.4689 5.1848 21.5278 5.30314 21.5278 5.43627C21.5278 5.85046 21.5205 6.24246 21.5057 6.61228C21.491 6.9673 21.4763 7.33711 21.4616 7.72172C21.4616 8.10633 21.4542 8.51312 21.4395 8.94211C21.4247 9.37109 21.4174 9.86664 21.4174 10.4288C21.4174 10.9761 21.4247 11.4716 21.4395 11.9154C21.4542 12.3444 21.4616 12.7512 21.4616 13.1358C21.4763 13.5204 21.491 13.8976 21.5057 14.2674C21.5205 14.6225 21.5278 15.0071 21.5278 15.4213C21.5278 15.5692 21.4689 15.6949 21.3511 15.7985C21.2333 15.8872 21.086 15.9612 20.9092 16.0204C20.7325 16.0795 20.5483 16.1239 20.3569 16.1535C20.1654 16.1831 20.0034 16.1979 19.8708 16.1979C19.7382 16.1979 19.5762 16.1831 19.3847 16.1535C19.1932 16.1239 19.0091 16.0795 18.8324 16.0204C18.6556 15.9612 18.5083 15.8872 18.3905 15.7985C18.2727 15.6949 18.2137 15.5692 18.2137 15.4213C18.2137 15.0071 18.2211 14.6225 18.2358 14.2674C18.2506 13.8976 18.2579 13.5204 18.2579 13.1358C18.2727 12.7512 18.2874 12.3444 18.3021 11.9154C18.3168 11.4716 18.3242 10.9761 18.3242 10.4288C18.3242 9.86664 18.3168 9.37109 18.3021 8.94211C18.2874 8.51312 18.2727 8.10633 18.2579 7.72172C18.2579 7.33711 18.2506 6.9673 18.2358 6.61228C18.2211 6.24246 18.2137 5.85046 18.2137 5.43627C18.2137 5.30314 18.2727 5.1848 18.3905 5.08125C18.5083 4.9777 18.6556 4.89634 18.8324 4.83717C19.0091 4.778 19.1932 4.73362 19.3847 4.70404C19.5762 4.67445 19.7382 4.65966 19.8708 4.65966ZM18.1033 1.77511C18.1033 1.21299 18.2579 0.77661 18.5672 0.465965C18.8766 0.155322 19.3111 0 19.8708 0C20.4305 0 20.865 0.155322 21.1743 0.465965C21.4837 0.77661 21.6383 1.21299 21.6383 1.77511C21.6383 2.33723 21.4837 2.77361 21.1743 3.08425C20.865 3.3949 20.4305 3.55022 19.8708 3.55022C19.3111 3.55022 18.8766 3.3949 18.5672 3.08425C18.2579 2.77361 18.1033 2.33723 18.1033 1.77511Z" fill="#4971D0"/>
<path d="M28.9242 4.43777C29.1009 4.43777 29.3071 4.45256 29.5428 4.48215C29.7785 4.51173 30.0141 4.54872 30.2498 4.59309C30.5002 4.62268 30.7432 4.65966 30.9789 4.70404C31.2146 4.73362 31.4134 4.76321 31.5754 4.79279C31.8553 4.83717 31.9952 4.71883 31.9952 4.43777C31.9805 4.11233 31.9584 3.65376 31.9289 3.06206C31.9142 2.45557 31.9068 1.76771 31.9068 0.998499C31.9068 0.865366 31.9584 0.747025 32.0615 0.643476C32.1793 0.539929 32.3119 0.45857 32.4592 0.399399C32.6212 0.340229 32.7906 0.295852 32.9674 0.266267C33.1588 0.236681 33.3209 0.221888 33.4534 0.221888C33.586 0.221888 33.7406 0.236681 33.9174 0.266267C34.1089 0.295852 34.2783 0.340229 34.4256 0.399399C34.5876 0.45857 34.7201 0.539929 34.8232 0.643476C34.9411 0.747025 35 0.865366 35 0.998499C35 1.54582 34.9853 2.24847 34.9558 3.10644C34.9411 3.94962 34.919 4.82238 34.8895 5.72472C34.8601 6.61228 34.8306 7.47764 34.8012 8.32082C34.7864 9.164 34.7791 9.86664 34.7791 10.4288C34.7791 10.9021 34.7864 11.3385 34.8012 11.7379C34.8159 12.1373 34.8306 12.5293 34.8453 12.9139C34.8748 13.2837 34.8969 13.6535 34.9116 14.0234C34.9411 14.3932 34.9632 14.7852 34.9779 15.1994C34.9926 15.4656 34.919 15.6801 34.757 15.8428C34.5949 16.0056 34.3814 16.0721 34.1162 16.0425C33.9395 16.0278 33.7775 16.013 33.6302 15.9982C33.4976 15.9834 33.3282 15.976 33.122 15.976C32.6212 15.976 32.1793 15.9982 31.7964 16.0425C31.4281 16.0869 31.082 16.1387 30.758 16.1979C30.4486 16.257 30.1467 16.3088 29.8521 16.3532C29.5722 16.3976 29.2629 16.4198 28.9242 16.4198C28.0257 16.4198 27.2082 16.2718 26.4717 15.976C25.75 15.6949 25.124 15.2955 24.5937 14.7778C24.0782 14.2452 23.6731 13.6166 23.3786 12.8917C23.0987 12.1521 22.9588 11.3311 22.9588 10.4288C22.9588 9.52641 23.0987 8.71282 23.3786 7.98799C23.6731 7.24836 24.0782 6.61967 24.5937 6.10193C25.124 5.5694 25.75 5.16261 26.4717 4.88155C27.2082 4.5857 28.0257 4.43777 28.9242 4.43777ZM28.9242 13.7571C29.9257 13.7571 30.6917 13.513 31.2219 13.0249C31.7522 12.5219 32.0173 11.6565 32.0173 10.4288C32.0173 9.20098 31.7522 8.34301 31.2219 7.85485C30.6917 7.35191 29.9257 7.10043 28.9242 7.10043C27.9226 7.10043 27.1566 7.35191 26.6264 7.85485C26.0961 8.34301 25.831 9.20098 25.831 10.4288C25.831 11.6565 26.0961 12.5219 26.6264 13.0249C27.1566 13.513 27.9226 13.7571 28.9242 13.7571Z" fill="#4971D0"/>
</mask>
<g mask="url(#mask0)">
<g filter="url(#filter0_d)">
<circle cx="7.13018" cy="8.85821" r="13.179" fill="#4971D0"/>
</g>
</g>
<defs>
<filter id="filter0_d" x="-16.8513" y="-13.3949" width="47.963" height="47.963" filterUnits="userSpaceOnUse" color-interpolation-filters="sRGB">
<feFlood flood-opacity="0" result="BackgroundImageFix"/>
<feColorMatrix in="SourceAlpha" type="matrix" values="0 0 0 0 0 0 0 0 0 0 0 0 0 0 0 0 0 0 127 0"/>
<feOffset dy="1.7284"/>
<feGaussianBlur stdDeviation="5.40123"/>
<feColorMatrix type="matrix" values="0 0 0 0 0 0 0 0 0 0 0 0 0 0 0 0 0 0 0.25 0"/>
<feBlend mode="normal" in2="BackgroundImageFix" result="effect1_dropShadow"/>
<feBlend mode="normal" in="SourceGraphic" in2="effect1_dropShadow" result="shape"/>
</filter>
</defs>
</svg>
