<svg width="80" height="80" viewBox="0 0 80 80" fill="none" xmlns="http://www.w3.org/2000/svg">
<path d="M32.9993 73.1165C33.8093 73.1165 34.4693 72.4598 34.4693 71.6465C34.4693 70.8332 33.8126 70.1765 32.9993 70.1765C32.186 70.1765 31.5293 70.8365 31.5293 71.6465C31.5293 72.4565 32.186 73.1165 32.9993 73.1165Z" fill="#4971D0"/>
<path d="M53.0507 54.9801V64.9801H12.9974V4.98006H53.0474V8.3134H56.3807V4.58673C56.3807 2.9634 55.0641 1.64673 53.4407 1.64673H12.6074C10.9841 1.64673 9.66406 2.9634 9.66406 4.58673V75.3734C9.66406 76.9967 10.9841 78.3134 12.6074 78.3134H53.4441C55.0674 78.3134 56.3841 76.9967 56.3841 75.3734V54.9801H53.0507ZM53.0507 74.9801H12.9974V68.3134H53.0507V74.9801Z" fill="#4971D0"/>
<path d="M73.7268 11.6467H35.6501C34.2001 11.6467 33.0301 12.8201 33.0301 14.2667L33.0234 61.6467L47.2734 51.6467H73.6734C75.1834 51.6467 76.3568 49.9634 76.3568 48.4834V14.2767C76.3568 12.8234 75.1801 11.6467 73.7268 11.6467ZM46.3568 48.3101L36.3434 55.3101V14.9801H73.0234L73.0334 48.3134L46.3568 48.3101Z" fill="#4971D0"/>
<path d="M64.1327 33.1768C63.4727 31.8868 63.466 30.5135 63.466 30.4901V26.7701C63.466 22.1068 59.6893 18.3135 55.0527 18.3135C50.416 18.3135 46.6393 22.1068 46.6393 26.7701V30.5135C46.6393 30.5368 46.6293 32.8201 45.206 34.2635C44.386 35.0935 43.246 35.4968 41.7227 35.4968V38.8301H68.386V35.4968C66.3193 35.4935 64.9293 34.7335 64.1327 33.1768ZM48.4727 35.4935C49.9827 33.2101 49.9693 30.6001 49.9693 30.4935V26.7701C49.9693 23.9435 52.2493 21.6468 55.0493 21.6468C57.8493 21.6468 60.1293 23.9435 60.1293 26.7701V30.4701C60.1293 30.5968 60.116 33.2101 61.626 35.4901H48.4727V35.4935Z" fill="#4971D0"/>
<path d="M57.7509 38.8433C57.7509 40.3299 56.5409 41.5433 55.0509 41.5433C53.5609 41.5433 52.3509 40.3333 52.3509 38.8433H49.0176C49.0176 42.1699 51.7242 44.8766 55.0509 44.8766C58.3776 44.8766 61.0842 42.1699 61.0842 38.8433H57.7509Z" fill="#4971D0"/>
</svg>
