<svg width="80" height="80" viewBox="0 0 80 80" fill="none" xmlns="http://www.w3.org/2000/svg">
<path d="M29.1544 30.4166L12.5111 30.3999V23.7332L29.1577 23.7399L29.1544 30.4166ZM29.5511 20.4066L12.1177 20.3999C10.4944 20.3999 9.17773 21.7166 9.17773 23.3399V30.7866C9.17773 32.4166 10.4977 33.7366 12.1277 33.7366L29.5444 33.7432C31.1711 33.7432 32.4877 32.4266 32.4877 30.7999V23.3432C32.4911 21.7199 31.1744 20.4066 29.5511 20.4066Z" fill="#4971D0"/>
<path d="M19.1673 25.7998C18.3539 25.7998 17.6973 26.4598 17.6973 27.2698C17.6973 28.0831 18.3539 28.7398 19.1673 28.7398C19.9773 28.7398 20.6373 28.0798 20.6373 27.2698C20.6373 26.4565 19.9773 25.7998 19.1673 25.7998Z" fill="#4971D0"/>
<path d="M45.834 20.3999H35.834V23.7232H45.834V20.3999Z" fill="#4971D0"/>
<path d="M45.834 27.0801H35.834V30.4034H45.834V27.0801Z" fill="#4971D0"/>
<path d="M72.544 25.3933H60.834V28.7166H72.544V25.3933Z" fill="#4971D0"/>
<path d="M59.5572 20.4067L49.1738 20.4033V23.7367L59.1638 23.74L59.1605 30.4167L49.1738 30.4067V33.7367L59.5505 33.74C61.1772 33.74 62.4938 32.4233 62.4938 30.7967V23.3433C62.4938 21.72 61.1805 20.4067 59.5572 20.4067Z" fill="#4971D0"/>
<path d="M74.3001 25.3899H65.5801V28.7232H77.5001V28.5899C77.5001 26.8232 76.0667 25.3899 74.3001 25.3899Z" fill="#4971D0"/>
<path d="M49.18 13.7334H5.82667C3.99 13.7334 2.5 15.2234 2.5 17.0601V37.0767C2.5 38.9134 3.99 40.4034 5.82667 40.4034H9.69667H15.8367H22.4967H25.8467H35.84H44.4633H49.1833C51.02 40.4034 52.51 38.9134 52.51 37.0767V17.0567C52.5067 15.2201 51.0167 13.7334 49.18 13.7334ZM36.2267 37.0667C36.2233 37.0667 36.2233 37.0667 36.2267 37.0667L25.84 37.0634V37.0701L15.5633 37.0667C15.5567 37.0667 15.55 37.0701 15.54 37.0701L5.83333 37.0734L5.82667 17.0667H49.1733L49.18 37.0667H36.2267Z" fill="#4971D0"/>
<path d="M12.5039 43.2068L12.5006 66.9301C12.5006 68.8501 14.0439 70.4035 15.9606 70.4068C22.5439 70.4101 29.5473 70.4135 29.5473 70.4135C31.1739 70.4135 32.4906 69.0968 32.4906 67.4701V60.0201C32.4906 58.3968 31.1739 57.0835 29.5539 57.0801L25.8406 57.0768V50.4001L32.8906 50.4035C34.5173 50.4035 35.8339 49.0868 35.8339 47.4601V40.4001H25.8473L32.5073 40.4035L32.5039 47.0801L25.8473 47.0735L25.8506 40.4001H22.4973L22.4939 49.4035L22.5173 60.4068L29.1606 60.4101L29.1573 67.0868L15.8306 67.0801V58.4635H15.8339L15.8373 40.4001H9.69727C11.2473 40.4001 12.5073 41.6568 12.5039 43.2068Z" fill="#4971D0"/>
</svg>
