<svg width="80" height="80" viewBox="0 0 80 80" fill="none" xmlns="http://www.w3.org/2000/svg">
<path d="M38.547 8.31331C46.2036 8.31331 53.0737 12.6 56.4803 19.5L57.3603 21.26L59.3203 21.3533C59.367 21.3566 63.9403 21.6 68.3403 23.94C73.8203 26.8533 76.597 31.7266 76.597 38.42C76.597 47.3966 70.5337 54.98 63.357 54.98H14.0603C8.38365 54.98 3.40031 48.45 3.40031 41.0066C3.40031 27.58 14.877 26.17 16.167 26.0566L18.567 25.87L19.1403 23.5333C21.3536 14.57 29.3303 8.31331 38.547 8.31331ZM38.547 4.97998C27.7903 4.97998 18.4836 12.28 15.9103 22.73C15.9103 22.73 0.0703125 23.97 0.0703125 41.0033C0.0703125 50.2 6.34698 58.31 14.0636 58.31H63.3603C72.5003 58.31 79.9336 49.2766 79.9336 38.4166C79.9336 18.8633 59.4703 18.02 59.4703 18.02C55.497 9.97665 47.477 4.97998 38.547 4.97998Z" fill="#4971D0"/>
<path d="M33.4668 46.5267V19.3167L56.0468 32.92L33.4668 46.5267ZM36.8001 25.2167V40.63L49.5868 32.9233L36.8001 25.2167Z" fill="#4971D0"/>
</svg>
