<svg width="80" height="80" viewBox="0 0 80 80" fill="none" xmlns="http://www.w3.org/2000/svg">
<path d="M63.334 51.53L16.6673 51.5167V41.5167L63.3373 41.5233L63.334 51.53ZM63.7306 38.1867L16.274 38.1833C14.6507 38.1833 13.334 39.5 13.334 41.12V51.9C13.334 53.53 14.654 54.85 16.284 54.85L63.724 54.8567C65.3506 54.8567 66.6673 53.54 66.6673 51.9133V41.13C66.6673 39.5033 65.354 38.1867 63.7306 38.1867Z" fill="#4971D0"/>
<path d="M58.3333 45.05C57.5199 45.05 56.8633 45.71 56.8633 46.5201C56.8633 47.3301 57.5199 47.9901 58.3333 47.9901C59.1433 47.9901 59.8033 47.3301 59.8033 46.5201C59.8033 45.71 59.1466 45.05 58.3333 45.05Z" fill="#4971D0"/>
<path d="M51.7141 45.05C50.9008 45.05 50.2441 45.71 50.2441 46.5201C50.2441 47.3301 50.9008 47.9901 51.7141 47.9901C52.5241 47.9901 53.1841 47.3301 53.1841 46.5201C53.1841 45.71 52.5275 45.05 51.7141 45.05Z" fill="#4971D0"/>
<path d="M45.0013 45.05C44.1879 45.05 43.5312 45.71 43.5312 46.5201C43.5312 47.3301 44.1879 47.9901 45.0013 47.9901C45.8113 47.9901 46.4713 47.3301 46.4713 46.5201C46.4713 45.71 45.8146 45.05 45.0013 45.05Z" fill="#4971D0"/>
<path d="M38.547 14.8499C46.2036 14.8499 53.0737 19.1366 56.4803 26.0366L57.3603 27.7966L59.3203 27.8899C59.367 27.8933 63.9403 28.1366 68.3403 30.4766C73.8203 33.3899 76.597 38.2633 76.597 44.9566C76.597 53.9333 70.5337 61.5166 63.357 61.5166H14.0603C8.38365 61.5166 3.40031 54.9866 3.40031 47.5433C3.40031 34.1166 14.877 32.7066 16.167 32.5933L18.567 32.4066L19.147 30.0666C21.3536 21.1066 29.3303 14.8499 38.547 14.8499ZM38.547 11.5166C27.7903 11.5166 18.4836 18.8166 15.9103 29.2666C15.9103 29.2666 0.0703125 30.5066 0.0703125 47.5399C0.0703125 56.7366 6.34698 64.8466 14.0636 64.8466H63.3603C72.5003 64.8466 79.9336 55.8133 79.9336 44.9533C79.9336 25.3999 59.4703 24.5566 59.4703 24.5566C55.497 16.5133 47.477 11.5166 38.547 11.5166Z" fill="#4971D0"/>
</svg>
