<svg width="80" height="80" viewBox="0 0 80 80" fill="none" xmlns="http://www.w3.org/2000/svg">
<path d="M39.9993 19.9834C32.636 19.9834 26.666 25.9534 26.666 33.3167C26.666 38.2401 29.366 42.4934 33.3327 44.8034V40.7201C31.3027 38.8901 29.9993 36.2634 29.9993 33.3201C29.9993 27.8067 34.486 23.3201 39.9993 23.3201C45.5127 23.3201 49.9993 27.8067 49.9993 33.3201C49.9993 36.2634 48.696 38.8867 46.666 40.7201V44.8067C50.636 42.4967 53.3327 38.2434 53.3327 33.3234C53.3327 25.9501 47.3627 19.9834 39.9993 19.9834Z" fill="#4971D0"/>
<path d="M43.1875 30.1298C42.3075 29.2498 41.1541 28.8098 40.0008 28.8098C38.8475 28.8098 37.6941 29.2498 36.8141 30.1298C35.0541 31.8898 35.0541 34.7431 36.8141 36.5031C37.2608 36.9498 37.7808 37.2798 38.3341 37.4998V76.6498H41.6675V37.4998C42.2208 37.2798 42.7408 36.9531 43.1875 36.5031C44.9475 34.7431 44.9475 31.8898 43.1875 30.1298Z" fill="#4971D0"/>
<path d="M40.0005 11.74C28.0838 11.74 18.4238 21.4 18.4238 33.3167C18.4238 42.9033 24.6838 51.02 33.3338 53.83V50.28C26.5672 47.61 21.7572 41.02 21.7572 33.3167C21.7572 23.2567 29.9405 15.0733 40.0005 15.0733C50.0605 15.0733 58.2438 23.2567 58.2438 33.3167C58.2438 41.02 53.4372 47.61 46.6672 50.28V53.83C55.3172 51.02 61.5772 42.9033 61.5772 33.3167C61.5772 21.4 51.9172 11.74 40.0005 11.74Z" fill="#4971D0"/>
<path d="M39.9999 3.3501C23.4499 3.3501 10.0332 16.7668 10.0332 33.3168C10.0332 47.5701 19.9965 59.4768 33.3332 62.5134V59.0701C21.8699 56.1001 13.3665 45.6968 13.3665 33.3168C13.3665 26.2034 16.1365 19.5168 21.1665 14.4868C26.1965 9.45677 32.8865 6.68343 39.9999 6.68343C54.6832 6.68343 66.6332 18.6301 66.6332 33.3168C66.6332 45.6968 58.1299 56.1001 46.6665 59.0701V62.5134C60.0032 59.4801 69.9665 47.5734 69.9665 33.3168C69.9665 16.7668 56.5499 3.3501 39.9999 3.3501Z" fill="#4971D0"/>
</svg>
