<svg width="80" height="80" viewBox="0 0 80 80" fill="none" xmlns="http://www.w3.org/2000/svg">
<g clip-path="url(#clip0)">
<path d="M23.1591 38.36C25.1391 36.4134 25.8658 35.1034 25.8658 33.34C25.8658 31.1834 24.3458 29.8134 22.0624 29.8134C19.9058 29.8134 18.2324 31.1834 18.2324 33.4634C18.2324 33.98 18.3224 34.4367 18.4724 34.8334L15.4324 35.38C15.1591 34.68 15.0691 33.92 15.0691 33.1567C15.0691 29.9634 17.8058 26.9534 22.0924 26.9534C26.5024 26.9534 29.0291 29.51 29.0291 32.9167C29.0291 35.5634 28.1458 37.57 25.3191 40.34L19.9091 45.6934H29.0924V48.6734H14.9824V46.33L23.1591 38.36Z" fill="#4971D0"/>
<path d="M30.6465 41.7968L41.0798 27.3801H44.3665V41.7968H46.6465L46.6498 44.7768H44.3698V48.6701H41.0832V44.7768H30.6498L30.6465 41.7968ZM34.0832 41.7968H41.0798V32.0935L34.0832 41.7968Z" fill="#4971D0"/>
<path d="M60.0431 48.6701H56.8198L64.9964 30.3601H54.2598V27.3801H68.3131V30.1768L60.0431 48.6701Z" fill="#4971D0"/>
<path d="M59.2125 69.1032H43.3125L51.2625 55.9099L59.2125 69.1032ZM49.2125 65.7699H53.3125L51.2625 62.3699L49.2125 65.7699Z" fill="#4971D0"/>
<path d="M52.9329 67.4365H49.5996V78.6199H52.9329V67.4365Z" fill="#4971D0"/>
<path d="M31.6492 78.6167L23.6992 65.4233H39.5992L31.6492 78.6167ZM29.5959 68.7567L31.6459 72.1567L33.6959 68.7567H29.5959Z" fill="#4971D0"/>
<path d="M33.3158 55.2866H29.9824V67.09H33.3158V55.2866Z" fill="#4971D0"/>
<path d="M51.6497 37.0999C52.4597 37.0999 53.1197 36.4432 53.1197 35.6299C53.1197 34.8166 52.463 34.1599 51.6497 34.1599C50.8364 34.1599 50.1797 34.8199 50.1797 35.6299C50.1797 36.4399 50.8364 37.0999 51.6497 37.0999Z" fill="#4971D0"/>
<path d="M51.6497 44.8934C52.4597 44.8934 53.1197 44.2367 53.1197 43.4234C53.1197 42.61 52.463 41.9534 51.6497 41.9534C50.8364 41.9534 50.1797 42.6134 50.1797 43.4234C50.1797 44.2334 50.8364 44.8934 51.6497 44.8934Z" fill="#4971D0"/>
<path d="M60.0938 15.2499C56.1205 7.20326 48.6738 3.17993 39.7405 3.17993C28.9838 3.17993 18.5238 8.1666 15.9505 18.6199C15.9505 18.6199 -0.0195312 22.1733 -0.0195312 39.2066C-0.0195312 48.4033 6.64714 58.6199 16.6471 58.6199H23.3138V55.2866H16.6471C8.79047 55.2866 3.3138 46.8133 3.3138 39.2066C3.3138 25.1366 16.1405 21.9966 16.6738 21.8733L18.6938 21.4233L19.1871 19.4166C21.5305 9.89326 31.7238 6.51327 39.7405 6.51327C47.6871 6.51327 53.8538 10.1399 57.1038 16.7266L57.9371 18.4133L59.8105 18.5733C60.4971 18.6333 76.6505 20.2266 76.6505 38.6199C76.6505 43.6299 75.3505 55.2866 63.3171 55.2866H59.9838V58.6199H63.3171C74.9838 58.6199 79.9838 49.4799 79.9838 38.6199C79.9838 16.9533 60.0938 15.2499 60.0938 15.2499Z" fill="#4971D0"/>
</g>
<defs>
<clipPath id="clip0">
<rect width="80" height="80" fill="white"/>
</clipPath>
</defs>
</svg>
