<svg width="37" height="47" viewBox="0 0 37 47" fill="none" xmlns="http://www.w3.org/2000/svg">
<path d="M2.98701 8.08767C4.52001 8.08767 5.34134 9.33834 5.34134 10.8713V23.6848C5.34134 24.1877 5.93167 24.6065 6.43917 24.6065C6.9595 24.6065 7.63151 24.1877 7.63151 23.6848V5.30867C7.63151 3.76634 8.40034 2.525 9.94267 2.525C11.4757 2.525 12.3238 3.76517 12.3238 5.30867V21.824C12.3238 22.335 12.9993 22.7468 13.5045 22.7468C14.0213 22.7468 14.6595 22.335 14.6595 21.824V3.44667C14.6595 1.91484 15.3922 0.666504 16.9357 0.666504C18.4768 0.666504 19.3542 1.91484 19.3542 3.44667V21.824C19.3542 22.335 19.9188 22.7468 20.4357 22.7468C20.9408 22.7468 21.6513 22.335 21.6513 21.824V7.166C21.6513 5.62484 22.3933 4.41967 23.9252 4.41967C25.4663 4.41967 26.3087 5.62367 26.3087 7.166V32.1992L31.6427 25.9552C32.4162 24.911 33.9865 24.3662 35.4997 25.3555C36.2872 25.8163 37.504 27.2467 35.9523 29.272C35.9523 29.272 30.2497 36.4762 27.0787 40.3273C24.057 44.1867 18.1887 46.1665 14.2138 46.1665C1.24401 46.1665 0.666505 37.3278 0.666505 34.3365V10.8713C0.665339 9.33834 1.44467 8.08767 2.98701 8.08767Z" fill="#818C99"/>
</svg>
