<svg width="40" height="40" viewBox="0 0 40 40" fill="none" xmlns="http://www.w3.org/2000/svg">
<path d="M22.5 1.66667C22.9505 3.16834 23.2657 4.67002 25.7619 6.11075C28.5572 6.86886 29.9242 6.11637 31.1959 5.26861C32.5217 4.38474 32.9153 4.64022 33.4448 5.16114L34.7314 6.44712C35.3206 7.03638 35.5564 7.27209 34.7314 8.80414C33.9879 10.1849 33.1487 11.4699 33.896 14.2553C35.3368 16.766 36.8351 17.2003 38.3333 17.5C39.8958 17.8125 39.9935 18.2715 39.9996 19.0143L40 20.8333C40 21.6667 40 22 38.3333 22.5C36.8317 22.9505 35.33 23.2657 33.8893 25.7619C33.1311 28.5572 33.8836 29.9242 34.7314 31.1959C35.6153 32.5217 35.3598 32.9153 34.8389 33.4448L33.5529 34.7314C32.9636 35.3206 32.7279 35.5564 31.1959 34.7314C29.8151 33.9879 28.5301 33.1487 25.7447 33.896C23.234 35.3368 22.7997 36.8351 22.5 38.3333C22.1875 39.8958 21.7285 39.9935 20.9857 39.9996L19.4776 40C19.3878 40 19.2857 40 19.1667 40C18.3333 40 18 40 17.5 38.3333C17.0495 36.8317 16.7343 35.33 14.2381 33.8893C11.4428 33.1311 10.0758 33.8836 8.80414 34.7314C7.4783 35.6153 7.08471 35.3598 6.55516 34.8389L5.26861 33.5529C4.67935 32.9636 4.44364 32.7279 5.26861 31.1959C6.01211 29.8151 6.85131 28.5301 6.10397 25.7447C4.66319 23.234 3.16493 22.7997 1.66667 22.5C0.104167 22.1875 0.00651026 21.7285 0.000406742 20.9857L0 19.1667C0 18.3333 -1.19209e-07 18 1.66667 17.5C3.16834 17.0495 4.67002 16.7343 6.11075 14.2381C6.86886 11.4428 6.11637 10.0758 5.26861 8.80414C4.38474 7.4783 4.64022 7.08471 5.16114 6.55516L6.44712 5.26861C7.03638 4.67935 7.27209 4.44364 8.80414 5.26861C10.1849 6.01211 11.4699 6.85131 14.2553 6.10397C16.766 4.66319 17.2003 3.16493 17.5 1.66667C17.8125 0.104167 18.2715 0.00651026 19.0143 0.000406742L20.8333 0C21.6667 0 22 -1.19209e-07 22.5 1.66667ZM20 10.5C14.7533 10.5 10.5 14.7533 10.5 20C10.5 25.2467 14.7533 29.5 20 29.5C25.2467 29.5 29.5 25.2467 29.5 20C29.5 14.7533 25.2467 10.5 20 10.5Z" fill="#99A2AD"/>
</svg>
